<svg width="90" height="90" viewBox="0 0 90 90" fill="none" xmlns="http://www.w3.org/2000/svg">
<rect width="90" height="90" fill="#529EA7"></rect>
<path d="M44.9699 37.2305L47.2899 41.8105C47.3799 42.0005 47.5399 42.1505 47.7199 42.2405L52.2999 44.5605L47.7199 46.8805C47.5299 46.9705 47.3799 47.1305 47.2899 47.3105L44.9699 51.8905L42.6499 47.3105C42.5599 47.1205 42.3999 46.9705 42.2199 46.8805L37.6399 44.5605L42.2199 42.2405C42.4099 42.1505 42.5599 41.9905 42.6499 41.8105L44.9699 37.2305Z" fill="#FFFEFE"></path>
<path d="M44.7899 32.7798L48.1599 23.5698C48.9699 21.3598 47.3299 19.0098 44.9699 19.0098C42.6599 19.0098 41.0299 21.2698 41.7399 23.4598L44.7899 32.7798Z" fill="#FFFEFE"></path>
<path d="M56.3298 44.38L65.5398 47.75C67.7498 48.56 70.0998 46.92 70.0998 44.56C70.0998 42.25 67.8398 40.62 65.6498 41.33L56.3298 44.38Z" fill="#FFFEFE"></path>
<path d="M33.77 44.7396L24.56 41.3696C22.35 40.5596 20 42.1996 20 44.5596C20 46.8696 22.26 48.4996 24.45 47.7896L33.77 44.7396Z" fill="#FFFEFE"></path>
<path d="M54.4598 34.63C56.0835 34.63 57.3998 33.3137 57.3998 31.69C57.3998 30.0663 56.0835 28.75 54.4598 28.75C52.8361 28.75 51.5198 30.0663 51.5198 31.69C51.5198 33.3137 52.8361 34.63 54.4598 34.63Z" fill="#FFFEFE"></path>
<path d="M67.1597 24.88C68.7834 24.88 70.0997 23.5637 70.0997 21.94C70.0997 20.3163 68.7834 19 67.1597 19C65.536 19 64.2197 20.3163 64.2197 21.94C64.2197 23.5637 65.536 24.88 67.1597 24.88Z" fill="#FFFEFE"></path>
<path d="M35.2198 34.63C36.8435 34.63 38.1598 33.3137 38.1598 31.69C38.1598 30.0663 36.8435 28.75 35.2198 28.75C33.5961 28.75 32.2798 30.0663 32.2798 31.69C32.2798 33.3137 33.5961 34.63 35.2198 34.63Z" fill="#FFFEFE"></path>
<path d="M22.94 24.88C24.5637 24.88 25.88 23.5637 25.88 21.94C25.88 20.3163 24.5637 19 22.94 19C21.3163 19 20 20.3163 20 21.94C20 23.5637 21.3163 24.88 22.94 24.88Z" fill="#FFFEFE"></path>
<path d="M45.1498 56.2598L41.7798 65.4698C40.9698 67.6798 42.6098 70.0298 44.9698 70.0298C47.2798 70.0298 48.9098 67.7698 48.1998 65.5798L45.1498 56.2598Z" fill="#FFFEFE"></path>
<path d="M35.64 60.2902C37.2637 60.2902 38.58 58.9739 38.58 57.3502C38.58 55.7264 37.2637 54.4102 35.64 54.4102C34.0162 54.4102 32.7 55.7264 32.7 57.3502C32.7 58.9739 34.0162 60.2902 35.64 60.2902Z" fill="#FFFEFE"></path>
<path d="M22.94 70.0304C24.5637 70.0304 25.88 68.7141 25.88 67.0904C25.88 65.4667 24.5637 64.1504 22.94 64.1504C21.3163 64.1504 20 65.4667 20 67.0904C20 68.7141 21.3163 70.0304 22.94 70.0304Z" fill="#FFFEFE"></path>
<path d="M54.8799 60.2902C56.5037 60.2902 57.8199 58.9739 57.8199 57.3502C57.8199 55.7264 56.5037 54.4102 54.8799 54.4102C53.2562 54.4102 51.9399 55.7264 51.9399 57.3502C51.9399 58.9739 53.2562 60.2902 54.8799 60.2902Z" fill="#FFFEFE"></path>
<path d="M67.1597 70.0304C68.7834 70.0304 70.0997 68.7141 70.0997 67.0904C70.0997 65.4667 68.7834 64.1504 67.1597 64.1504C65.536 64.1504 64.2197 65.4667 64.2197 67.0904C64.2197 68.7141 65.536 70.0304 67.1597 70.0304Z" fill="#FFFEFE"></path>
</svg>