<svg width="209" height="58" viewBox="0 0 209 58" fill="none" xmlns="http://www.w3.org/2000/svg">
<path d="M56.7814 39.9999C56.2401 39.9999 55.8107 39.8506 55.4934 39.5519C55.1947 39.2346 55.0454 38.8052 55.0454 38.2639V22.1359C55.0454 21.5946 55.1947 21.1746 55.4934 20.8759C55.8107 20.5586 56.2401 20.3999 56.7814 20.3999H66.7214C67.2067 20.3999 67.5894 20.5306 67.8694 20.7919C68.1494 21.0532 68.2894 21.4266 68.2894 21.9119C68.2894 22.3972 68.1494 22.7706 67.8694 23.0319C67.5894 23.2932 67.2067 23.4239 66.7214 23.4239H58.3494V28.4079H64.4534C64.9387 28.4079 65.3214 28.5386 65.6014 28.7999C65.8814 29.0612 66.0214 29.4346 66.0214 29.9199C66.0214 30.4052 65.8814 30.7786 65.6014 31.0399C65.3214 31.3012 64.9387 31.4319 64.4534 31.4319H58.3494V36.9759H67.2534C67.7387 36.9759 68.1214 37.1066 68.4014 37.3679C68.6814 37.6292 68.8214 38.0026 68.8214 38.4879C68.8214 38.9732 68.6814 39.3466 68.4014 39.6079C68.1214 39.8692 67.7387 39.9999 67.2534 39.9999H56.7814Z" fill="#E5E1D6"></path>
<path d="M37.1784 39.9999C36.693 39.9999 36.2917 39.8506 35.9744 39.5519C35.6757 39.2346 35.5264 38.8332 35.5264 38.3479V22.0519C35.5264 21.5666 35.6757 21.1746 35.9744 20.8759C36.2917 20.5586 36.693 20.3999 37.1784 20.3999C37.6637 20.3999 38.0557 20.5586 38.3544 20.8759C38.6717 21.1746 38.8304 21.5666 38.8304 22.0519V28.4359H46.1664V22.0519C46.1664 21.5666 46.3157 21.1746 46.6144 20.8759C46.9317 20.5586 47.333 20.3999 47.8184 20.3999C48.3037 20.3999 48.6957 20.5586 48.9944 20.8759C49.3117 21.1746 49.4704 21.5666 49.4704 22.0519V38.3479C49.4704 38.8332 49.3117 39.2346 48.9944 39.5519C48.6957 39.8506 48.3037 39.9999 47.8184 39.9999C47.333 39.9999 46.9317 39.8506 46.6144 39.5519C46.3157 39.2346 46.1664 38.8332 46.1664 38.3479V31.4599H38.8304V38.3479C38.8304 38.8332 38.6717 39.2346 38.3544 39.5519C38.0557 39.8506 37.6637 39.9999 37.1784 39.9999Z" fill="#E5E1D6"></path>
<path d="M24.0432 40.2801C22.3819 40.2801 20.9166 39.8975 19.6472 39.1321C18.3779 38.3481 17.3886 37.2001 16.6792 35.6881C15.9699 34.1575 15.6152 32.3281 15.6152 30.2001C15.6152 28.0721 15.9699 26.2521 16.6792 24.7401C17.3886 23.2095 18.3779 22.0615 19.6472 21.2961C20.9166 20.5121 22.3819 20.1201 24.0432 20.1201C25.3686 20.1201 26.5259 20.3068 27.5152 20.6801C28.5232 21.0348 29.4472 21.6321 30.2872 22.4721C30.7166 22.9014 30.9312 23.3868 30.9312 23.9281C30.9312 24.3761 30.7819 24.7495 30.4832 25.0481C30.2032 25.3281 29.8579 25.4681 29.4472 25.4681C29.0179 25.4681 28.5979 25.2628 28.1872 24.8521C27.5712 24.2361 26.9272 23.7975 26.2552 23.5361C25.5832 23.2748 24.8459 23.1441 24.0432 23.1441C22.9046 23.1441 21.9526 23.4801 21.1872 24.1521C20.4406 24.8241 19.8806 25.6921 19.5072 26.7561C19.1526 27.8201 18.9752 28.9681 18.9752 30.2001C18.9752 31.4321 19.1526 32.5801 19.5072 33.6441C19.8806 34.7081 20.4406 35.5761 21.1872 36.2481C21.9526 36.9201 22.9046 37.2561 24.0432 37.2561C24.8459 37.2561 25.5832 37.1255 26.2552 36.8641C26.9272 36.6028 27.5712 36.1641 28.1872 35.5481C28.5979 35.1375 29.0179 34.9321 29.4472 34.9321C29.8579 34.9321 30.2032 35.0815 30.4832 35.3801C30.7819 35.6601 30.9312 36.0241 30.9312 36.4721C30.9312 37.0135 30.7166 37.4988 30.2872 37.9281C29.4472 38.7681 28.5232 39.3748 27.5152 39.7481C26.5259 40.1028 25.3686 40.2801 24.0432 40.2801Z" fill="#E5E1D6"></path>
<path d="M183.053 40.1961C180.869 39.9161 179.179 38.8708 177.985 37.0601C176.809 35.2308 176.221 32.9441 176.221 30.2001C176.221 28.4268 176.482 26.8214 177.005 25.3841C177.527 23.9281 178.302 22.7521 179.329 21.8561C180.355 20.9414 181.597 20.3908 183.053 20.2041V23.2841C181.914 23.6014 181.046 24.3854 180.449 25.6361C179.87 26.8681 179.581 28.3894 179.581 30.2001C179.581 32.0108 179.87 33.5414 180.449 34.7921C181.046 36.0241 181.914 36.7988 183.053 37.1161V40.1961ZM185.237 37.1161C186.375 36.7988 187.234 36.0241 187.813 34.7921C188.41 33.5414 188.709 32.0108 188.709 30.2001C188.709 28.3894 188.41 26.8681 187.813 25.6361C187.234 24.3854 186.375 23.6014 185.237 23.2841V20.2041C186.693 20.3908 187.934 20.9414 188.961 21.8561C189.987 22.7521 190.762 23.9281 191.285 25.3841C191.807 26.8214 192.069 28.4268 192.069 30.2001C192.069 31.9921 191.807 33.6068 191.285 35.0441C190.762 36.4814 189.987 37.6574 188.961 38.5721C187.934 39.4681 186.693 40.0094 185.237 40.1961V37.1161Z" fill="#E5E1D6"></path>
<path d="M159.222 39.9999C158.736 39.9999 158.335 39.8506 158.018 39.5519C157.719 39.2346 157.57 38.8332 157.57 38.3479V22.0519C157.57 21.5852 157.7 21.1932 157.962 20.8759C158.242 20.5586 158.652 20.3999 159.194 20.3999C159.735 20.3999 160.174 20.6426 160.51 21.1279L168.77 32.9439V22.0519C168.77 21.5666 168.919 21.1746 169.218 20.8759C169.535 20.5586 169.936 20.3999 170.422 20.3999C170.907 20.3999 171.299 20.5586 171.598 20.8759C171.915 21.1746 172.074 21.5666 172.074 22.0519V38.3479C172.074 38.8146 171.934 39.2066 171.654 39.5239C171.392 39.8412 170.991 39.9999 170.45 39.9999C169.908 39.9999 169.47 39.7572 169.134 39.2719L160.874 27.5119V38.3479C160.874 38.8332 160.715 39.2346 160.398 39.5519C160.099 39.8506 159.707 39.9999 159.222 39.9999Z" fill="#E5E1D6"></path>
<path d="M144.406 40.1961C142.222 39.9161 140.533 38.8708 139.338 37.0601C138.162 35.2308 137.574 32.9441 137.574 30.2001C137.574 28.4268 137.836 26.8214 138.358 25.3841C138.881 23.9281 139.656 22.7521 140.682 21.8561C141.709 20.9414 142.95 20.3908 144.406 20.2041V23.2841C143.268 23.6014 142.4 24.3854 141.802 25.6361C141.224 26.8681 140.934 28.3894 140.934 30.2001C140.934 32.0108 141.224 33.5414 141.802 34.7921C142.4 36.0241 143.268 36.7988 144.406 37.1161V40.1961ZM146.59 37.1161C147.729 36.7988 148.588 36.0241 149.166 34.7921C149.764 33.5414 150.062 32.0108 150.062 30.2001C150.062 28.3894 149.764 26.8681 149.166 25.6361C148.588 24.3854 147.729 23.6014 146.59 23.2841V20.2041C148.046 20.3908 149.288 20.9414 150.314 21.8561C151.341 22.7521 152.116 23.9281 152.638 25.3841C153.161 26.8214 153.422 28.4268 153.422 30.2001C153.422 31.9921 153.161 33.6068 152.638 35.0441C152.116 36.4814 151.341 37.6574 150.314 38.5721C149.288 39.4681 148.046 40.0094 146.59 40.1961V37.1161Z" fill="#E5E1D6"></path>
<path d="M126.175 40.2799C123.711 40.2799 121.873 39.5799 120.659 38.1799C119.465 36.7799 118.867 34.8946 118.867 32.5239V22.0519C118.867 21.5666 119.017 21.1746 119.315 20.8759C119.633 20.5586 120.034 20.3999 120.519 20.3999C121.005 20.3999 121.397 20.5586 121.695 20.8759C122.013 21.1746 122.171 21.5666 122.171 22.0519V32.6359C122.171 34.1106 122.535 35.2492 123.263 36.0519C124.01 36.8546 124.981 37.2559 126.175 37.2559C127.37 37.2559 128.331 36.8546 129.059 36.0519C129.806 35.2492 130.179 34.1106 130.179 32.6359V22.0519C130.179 21.5666 130.329 21.1746 130.627 20.8759C130.945 20.5586 131.346 20.3999 131.831 20.3999C132.317 20.3999 132.709 20.5586 133.007 20.8759C133.325 21.1746 133.483 21.5666 133.483 22.0519V32.5239C133.483 34.8946 132.877 36.7799 131.663 38.1799C130.469 39.5799 128.639 40.2799 126.175 40.2799Z" fill="#E5E1D6"></path>
<path d="M102.316 39.9999C101.774 39.9999 101.345 39.8506 101.028 39.5519C100.729 39.2346 100.58 38.8052 100.58 38.2639V22.1359C100.58 21.5946 100.729 21.1746 101.028 20.8759C101.345 20.5586 101.774 20.3999 102.316 20.3999H103.884V39.9999H102.316ZM106.068 39.9999V36.9759H108.14C110.286 36.9759 111.36 36.0799 111.36 34.2879C111.36 32.4959 110.286 31.5999 108.14 31.5999H106.068V28.5759H107.216C109.232 28.5759 110.24 27.7172 110.24 25.9999C110.24 24.2826 109.232 23.4239 107.216 23.4239H106.068V20.3999H107.776C109.493 20.3999 110.884 20.8759 111.948 21.8279C113.012 22.7799 113.544 24.1052 113.544 25.8039C113.544 26.6999 113.376 27.4746 113.04 28.1279C112.722 28.7812 112.293 29.3132 111.752 29.7239C112.61 30.1159 113.31 30.6946 113.852 31.4599C114.393 32.2066 114.664 33.1492 114.664 34.2879C114.664 36.0239 114.122 37.4146 113.04 38.4599C111.957 39.4866 110.473 39.9999 108.588 39.9999H106.068Z" fill="#E5E1D6"></path>
<path d="M209 0V58H0V0H209ZM3 55H206V3H3V55Z" fill="#E5E1D6"></path>
<path d="M84.5 -1.31134e-07L84.5 57L81.5 57L81.5 0L84.5 -1.31134e-07Z" fill="#E5E1D6"></path>
</svg>