<svg width="276" height="161" viewBox="0 0 276 161" fill="none" xmlns="http://www.w3.org/2000/svg">
<path d="M40.1198 39.9999C39.5785 39.9999 39.1491 39.8506 38.8318 39.5519C38.5331 39.2346 38.3838 38.8052 38.3838 38.2639V22.1359C38.3838 21.5946 38.5331 21.1746 38.8318 20.8759C39.1491 20.5586 39.5785 20.3999 40.1198 20.3999H50.0598C50.5451 20.3999 50.9278 20.5306 51.2078 20.7919C51.4878 21.0532 51.6278 21.4266 51.6278 21.9119C51.6278 22.3972 51.4878 22.7706 51.2078 23.0319C50.9278 23.2932 50.5451 23.4239 50.0598 23.4239H41.6878V28.4079H47.7918C48.2771 28.4079 48.6598 28.5386 48.9398 28.7999C49.2198 29.0612 49.3598 29.4346 49.3598 29.9199C49.3598 30.4052 49.2198 30.7786 48.9398 31.0399C48.6598 31.3012 48.2771 31.4319 47.7918 31.4319H41.6878V36.9759H50.5918C51.0771 36.9759 51.4598 37.1066 51.7398 37.3679C52.0198 37.6292 52.1598 38.0026 52.1598 38.4879C52.1598 38.9732 52.0198 39.3466 51.7398 39.6079C51.4598 39.8692 51.0771 39.9999 50.5918 39.9999H40.1198Z" fill="#E5E1D6"></path>
<path d="M22.2248 39.9999C21.6834 39.9999 21.2541 39.8506 20.9368 39.5519C20.6381 39.2346 20.4888 38.8052 20.4888 38.2639V22.0519C20.4888 21.5666 20.6381 21.1746 20.9368 20.8759C21.2541 20.5586 21.6554 20.3999 22.1408 20.3999C22.6261 20.3999 23.0181 20.5586 23.3168 20.8759C23.6341 21.1746 23.7928 21.5666 23.7928 22.0519V36.9759H32.2208C32.7061 36.9759 33.0888 37.1066 33.3688 37.3679C33.6488 37.6292 33.7888 38.0026 33.7888 38.4879C33.7888 38.9732 33.6488 39.3466 33.3688 39.6079C33.0888 39.8692 32.7061 39.9999 32.2208 39.9999H22.2248Z" fill="#E5E1D6"></path>
<path d="M233.736 90.9999C233.195 90.9999 232.766 90.8506 232.448 90.5519C232.15 90.2346 232 89.8052 232 89.2639V73.1359C232 72.5946 232.15 72.1746 232.448 71.8759C232.766 71.5586 233.195 71.3999 233.736 71.3999H243.676C244.162 71.3999 244.544 71.5306 244.824 71.7919C245.104 72.0532 245.244 72.4266 245.244 72.9119C245.244 73.3972 245.104 73.7706 244.824 74.0319C244.544 74.2932 244.162 74.4239 243.676 74.4239H235.304V79.4079H241.408C241.894 79.4079 242.276 79.5386 242.556 79.7999C242.836 80.0612 242.976 80.4346 242.976 80.9199C242.976 81.4052 242.836 81.7786 242.556 82.0399C242.276 82.3012 241.894 82.4319 241.408 82.4319H235.304V87.9759H244.208C244.694 87.9759 245.076 88.1066 245.356 88.3679C245.636 88.6292 245.776 89.0026 245.776 89.4879C245.776 89.9732 245.636 90.3466 245.356 90.6079C245.076 90.8692 244.694 90.9999 244.208 90.9999H233.736Z" fill="#E5E1D6"></path>
<path d="M214.665 90.9999C214.18 90.9999 213.779 90.8506 213.461 90.5519C213.163 90.2346 213.013 89.8332 213.013 89.3479V73.1359C213.013 72.5946 213.163 72.1746 213.461 71.8759C213.779 71.5586 214.208 71.3999 214.749 71.3999H216.317V89.3479C216.317 89.8332 216.159 90.2346 215.841 90.5519C215.543 90.8506 215.151 90.9999 214.665 90.9999ZM225.697 90.9999C224.988 90.9999 224.419 90.6452 223.989 89.9359L220.041 83.4959H218.501V80.4719H220.153C221.329 80.4719 222.207 80.2292 222.785 79.7439C223.364 79.2399 223.653 78.4746 223.653 77.4479C223.653 76.4212 223.364 75.6652 222.785 75.1799C222.207 74.6759 221.329 74.4239 220.153 74.4239H218.501V71.3999H220.405C222.552 71.3999 224.176 71.9599 225.277 73.0799C226.397 74.1999 226.957 75.6559 226.957 77.4479C226.957 78.9039 226.659 80.0612 226.061 80.9199C225.464 81.7786 224.615 82.4506 223.513 82.9359L226.789 88.1719C227.088 88.6572 227.237 89.0866 227.237 89.4599C227.237 89.9266 227.088 90.2999 226.789 90.5799C226.509 90.8599 226.145 90.9999 225.697 90.9999Z" fill="#E5E1D6"></path>
<path d="M195.202 90.9999C194.716 90.9999 194.334 90.8692 194.054 90.6079C193.774 90.3466 193.634 89.9732 193.634 89.4879C193.634 89.0026 193.774 88.6292 194.054 88.3679C194.334 88.1066 194.716 87.9759 195.202 87.9759H198.478V74.4239H195.202C194.716 74.4239 194.334 74.2932 194.054 74.0319C193.774 73.7706 193.634 73.3972 193.634 72.9119C193.634 72.4266 193.774 72.0532 194.054 71.7919C194.334 71.5306 194.716 71.3999 195.202 71.3999H205.058C205.543 71.3999 205.926 71.5306 206.206 71.7919C206.486 72.0532 206.626 72.4266 206.626 72.9119C206.626 73.3972 206.486 73.7706 206.206 74.0319C205.926 74.2932 205.543 74.4239 205.058 74.4239H201.782V87.9759H205.058C205.543 87.9759 205.926 88.1066 206.206 88.3679C206.486 88.6292 206.626 89.0026 206.626 89.4879C206.626 89.9732 206.486 90.3466 206.206 90.6079C205.926 90.8692 205.543 90.9999 205.058 90.9999H195.202Z" fill="#E5E1D6"></path>
<path d="M186.967 90.9999C186.631 90.9999 186.323 90.8972 186.043 90.6919C185.781 90.4679 185.585 90.1599 185.455 89.7679L179.183 72.9399L179.267 72.7159C179.435 72.2679 179.64 71.9412 179.883 71.7359C180.125 71.5119 180.433 71.3999 180.807 71.3999C181.18 71.3999 181.488 71.5119 181.731 71.7359C181.973 71.9412 182.179 72.2679 182.347 72.7159L188.479 88.5639C188.572 88.8439 188.619 89.0959 188.619 89.3199C188.619 89.8239 188.469 90.2346 188.171 90.5519C187.872 90.8506 187.471 90.9999 186.967 90.9999ZM174.647 90.9999C174.161 90.9999 173.76 90.8506 173.443 90.5519C173.144 90.2346 172.995 89.8239 172.995 89.3199C172.995 89.0959 173.041 88.8439 173.135 88.5639L177.895 76.1319L179.547 80.6399L178.819 82.6279H180.275L181.423 85.6519H177.699L176.159 89.7679C176.028 90.1599 175.823 90.4679 175.543 90.6919C175.281 90.8972 174.983 90.9999 174.647 90.9999Z" fill="#E5E1D6"></path>
<path d="M156.36 90.9999C155.874 90.9999 155.473 90.8506 155.156 90.5519C154.857 90.2346 154.708 89.8332 154.708 89.3479V73.1359C154.708 72.5946 154.857 72.1746 155.156 71.8759C155.473 71.5586 155.902 71.3999 156.444 71.3999H166.58C167.065 71.3999 167.448 71.5306 167.728 71.7919C168.008 72.0532 168.148 72.4266 168.148 72.9119C168.148 73.3972 168.008 73.7706 167.728 74.0319C167.448 74.2932 167.065 74.4239 166.58 74.4239H158.012V79.6879H164.284C164.769 79.6879 165.152 79.8186 165.432 80.0799C165.712 80.3412 165.852 80.7146 165.852 81.1999C165.852 81.6852 165.712 82.0586 165.432 82.3199C165.152 82.5812 164.769 82.7119 164.284 82.7119H158.012V89.3479C158.012 89.8332 157.853 90.2346 157.536 90.5519C157.237 90.8506 156.845 90.9999 156.36 90.9999Z" fill="#E5E1D6"></path>
<path d="M137.82 84.0282C137.334 84.0282 136.952 83.9069 136.672 83.6642C136.41 83.4029 136.28 83.0389 136.28 82.5722C136.28 82.1055 136.41 81.7509 136.672 81.5082C136.952 81.2469 137.334 81.1162 137.82 81.1162H146.556C147.041 81.1162 147.414 81.2469 147.676 81.5082C147.956 81.7509 148.096 82.1055 148.096 82.5722C148.096 83.0389 147.956 83.4029 147.676 83.6642C147.414 83.9069 147.041 84.0282 146.556 84.0282H137.82Z" fill="#E5E1D6"></path>
<path d="M118.048 90.9999C117.563 90.9999 117.162 90.8506 116.844 90.5519C116.546 90.2346 116.396 89.8332 116.396 89.3479V73.1359C116.396 72.5946 116.546 72.1746 116.844 71.8759C117.162 71.5586 117.591 71.3999 118.132 71.3999H119.7V89.3479C119.7 89.8332 119.542 90.2346 119.224 90.5519C118.926 90.8506 118.534 90.9999 118.048 90.9999ZM129.08 90.9999C128.371 90.9999 127.802 90.6452 127.372 89.9359L123.424 83.4959H121.884V80.4719H123.536C124.712 80.4719 125.59 80.2292 126.168 79.7439C126.747 79.2399 127.036 78.4746 127.036 77.4479C127.036 76.4212 126.747 75.6652 126.168 75.1799C125.59 74.6759 124.712 74.4239 123.536 74.4239H121.884V71.3999H123.788C125.935 71.3999 127.559 71.9599 128.66 73.0799C129.78 74.1999 130.34 75.6559 130.34 77.4479C130.34 78.9039 130.042 80.0612 129.444 80.9199C128.847 81.7786 127.998 82.4506 126.896 82.9359L130.172 88.1719C130.471 88.6572 130.62 89.0866 130.62 89.4599C130.62 89.9266 130.471 90.2999 130.172 90.5799C129.892 90.8599 129.528 90.9999 129.08 90.9999Z" fill="#E5E1D6"></path>
<path d="M98.5856 90.9999C98.1002 90.9999 97.7176 90.8692 97.4376 90.6079C97.1576 90.3466 97.0176 89.9732 97.0176 89.4879C97.0176 89.0026 97.1576 88.6292 97.4376 88.3679C97.7176 88.1066 98.1002 87.9759 98.5856 87.9759H101.862V74.4239H98.5856C98.1002 74.4239 97.7176 74.2932 97.4376 74.0319C97.1576 73.7706 97.0176 73.3972 97.0176 72.9119C97.0176 72.4266 97.1576 72.0532 97.4376 71.7919C97.7176 71.5306 98.1002 71.3999 98.5856 71.3999H108.442C108.927 71.3999 109.31 71.5306 109.59 71.7919C109.87 72.0532 110.01 72.4266 110.01 72.9119C110.01 73.3972 109.87 73.7706 109.59 74.0319C109.31 74.2932 108.927 74.4239 108.442 74.4239H105.166V87.9759H108.442C108.927 87.9759 109.31 88.1066 109.59 88.3679C109.87 88.6292 110.01 89.0026 110.01 89.4879C110.01 89.9732 109.87 90.3466 109.59 90.6079C109.31 90.8692 108.927 90.9999 108.442 90.9999H98.5856Z" fill="#E5E1D6"></path>
<path d="M83.0981 91.1961C80.9141 90.9161 79.2248 89.8708 78.0301 88.0601C76.8541 86.2308 76.2661 83.9441 76.2661 81.2001C76.2661 79.4268 76.5274 77.8214 77.0501 76.3841C77.5728 74.9281 78.3474 73.7521 79.3741 72.8561C80.4008 71.9414 81.6421 71.3908 83.0981 71.2041V74.2841C81.9594 74.6014 81.0914 75.3854 80.4941 76.6361C79.9154 77.8681 79.6261 79.3894 79.6261 81.2001C79.6261 83.0108 79.9154 84.5414 80.4941 85.7921C81.0914 87.0241 81.9594 87.7988 83.0981 88.1161V91.1961ZM85.2821 88.1161C86.4208 87.7988 87.2794 87.0241 87.8581 85.7921C88.4554 84.5414 88.7541 83.0108 88.7541 81.2001C88.7541 79.3894 88.4554 77.8681 87.8581 76.6361C87.2794 75.3854 86.4208 74.6014 85.2821 74.2841V71.2041C86.7381 71.3908 87.9794 71.9414 89.0061 72.8561C90.0328 73.7521 90.8074 74.9281 91.3301 76.3841C91.8528 77.8214 92.1141 79.4268 92.1141 81.2001C92.1141 82.9921 91.8528 84.6068 91.3301 86.0441C90.8074 87.4814 90.0328 88.6574 89.0061 89.5721C87.9794 90.4681 86.7381 91.0094 85.2821 91.1961V88.1161Z" fill="#E5E1D6"></path>
<path d="M64.9506 90.9999C64.5773 90.9999 64.2693 90.8879 64.0266 90.6639C63.784 90.4399 63.5786 90.1039 63.4106 89.6559L57.4466 73.8359C57.3533 73.5559 57.3066 73.3039 57.3066 73.0799C57.3066 72.5572 57.456 72.1466 57.7546 71.8479C58.072 71.5492 58.4733 71.3999 58.9586 71.3999C59.3693 71.3999 59.6866 71.5026 59.9106 71.7079C60.1533 71.9132 60.3493 72.2212 60.4986 72.6319L64.9506 85.0919L69.4026 72.6319C69.552 72.2212 69.7386 71.9132 69.9626 71.7079C70.2053 71.5026 70.532 71.3999 70.9426 71.3999C71.4466 71.3999 71.848 71.5492 72.1466 71.8479C72.4453 72.1466 72.5946 72.5572 72.5946 73.0799C72.5946 73.3039 72.548 73.5559 72.4546 73.8359L66.4906 89.6559C66.3226 90.1039 66.1173 90.4399 65.8746 90.6639C65.632 90.8879 65.324 90.9999 64.9506 90.9999Z" fill="#E5E1D6"></path>
<path d="M51.7034 90.9999C51.3674 90.9999 51.0594 90.8972 50.7794 90.6919C50.5181 90.4679 50.3221 90.1599 50.1914 89.7679L43.9194 72.9399L44.0034 72.7159C44.1714 72.2679 44.3768 71.9412 44.6194 71.7359C44.8621 71.5119 45.1701 71.3999 45.5434 71.3999C45.9168 71.3999 46.2248 71.5119 46.4674 71.7359C46.7101 71.9412 46.9154 72.2679 47.0834 72.7159L53.2154 88.5639C53.3088 88.8439 53.3554 89.0959 53.3554 89.3199C53.3554 89.8239 53.2061 90.2346 52.9074 90.5519C52.6088 90.8506 52.2074 90.9999 51.7034 90.9999ZM39.3834 90.9999C38.8981 90.9999 38.4968 90.8506 38.1794 90.5519C37.8808 90.2346 37.7314 89.8239 37.7314 89.3199C37.7314 89.0959 37.7781 88.8439 37.8714 88.5639L42.6314 76.1319L44.2834 80.6399L43.5554 82.6279H45.0114L46.1594 85.6519H42.4354L40.8954 89.7679C40.7648 90.1599 40.5594 90.4679 40.2794 90.6919C40.0181 90.8972 39.7194 90.9999 39.3834 90.9999Z" fill="#E5E1D6"></path>
<path d="M26.3325 91.2801C24.4845 91.2801 22.9539 91.0095 21.7405 90.4681C20.5459 89.9081 19.5565 89.0588 18.7725 87.9201C18.4925 87.4908 18.3525 87.0895 18.3525 86.7161C18.3525 86.2308 18.5019 85.8295 18.8005 85.5121C19.1179 85.1948 19.5379 85.0361 20.0605 85.0361C20.6579 85.0361 21.1245 85.2695 21.4605 85.7361C22.0579 86.6135 22.7205 87.2575 23.4485 87.6681C24.1952 88.0601 25.1565 88.2561 26.3325 88.2561C27.5272 88.2561 28.4699 88.0135 29.1605 87.5281C29.8512 87.0241 30.1965 86.3708 30.1965 85.5681C30.1965 84.8775 29.9725 84.3361 29.5245 83.9441C29.0952 83.5335 28.5819 83.2348 27.9845 83.0481C27.3872 82.8428 26.4632 82.5908 25.2125 82.2921C23.9432 81.9935 22.8885 81.6668 22.0485 81.3121C21.2085 80.9575 20.4992 80.4161 19.9205 79.6881C19.3605 78.9601 19.0805 77.9801 19.0805 76.7481C19.0805 75.5161 19.3979 74.4801 20.0325 73.6401C20.6859 72.8001 21.5352 72.1748 22.5805 71.7641C23.6445 71.3348 24.7925 71.1201 26.0245 71.1201C27.5739 71.1201 28.8712 71.3721 29.9165 71.8761C30.9619 72.3615 31.7925 73.1175 32.4085 74.1441C32.6325 74.5361 32.7445 74.9001 32.7445 75.2361C32.7445 75.7775 32.5952 76.1975 32.2965 76.4961C31.9979 76.7761 31.5965 76.9161 31.0925 76.9161C30.8312 76.9161 30.5699 76.8415 30.3085 76.6921C30.0659 76.5428 29.8605 76.3281 29.6925 76.0481C29.2819 75.3761 28.7779 74.8908 28.1805 74.5921C27.5832 74.2935 26.8645 74.1441 26.0245 74.1441C24.9045 74.1441 24.0179 74.3588 23.3645 74.7881C22.7112 75.2174 22.3845 75.8521 22.3845 76.6921C22.3845 77.2148 22.5712 77.6535 22.9445 78.0081C23.3365 78.3441 23.8219 78.6148 24.4005 78.8201C24.9979 79.0068 25.8005 79.2308 26.8085 79.4921C28.2085 79.8655 29.3565 80.2388 30.2525 80.6121C31.1485 80.9855 31.9139 81.5548 32.5485 82.3201C33.1832 83.0668 33.5005 84.0748 33.5005 85.3441C33.5005 86.6135 33.1739 87.6961 32.5205 88.5921C31.8672 89.4881 30.9992 90.1601 29.9165 90.6081C28.8339 91.0561 27.6392 91.2801 26.3325 91.2801Z" fill="#E5E1D6"></path>
<path d="M233.59 142C233.049 142 232.619 141.851 232.302 141.552C232.003 141.235 231.854 140.805 231.854 140.264V124.136C231.854 123.595 232.003 123.175 232.302 122.876C232.619 122.559 233.049 122.4 233.59 122.4H243.53C244.015 122.4 244.398 122.531 244.678 122.792C244.958 123.053 245.098 123.427 245.098 123.912C245.098 124.397 244.958 124.771 244.678 125.032C244.398 125.293 244.015 125.424 243.53 125.424H235.158V130.408H241.262C241.747 130.408 242.13 130.539 242.41 130.8C242.69 131.061 242.83 131.435 242.83 131.92C242.83 132.405 242.69 132.779 242.41 133.04C242.13 133.301 241.747 133.432 241.262 133.432H235.158V138.976H244.062C244.547 138.976 244.93 139.107 245.21 139.368C245.49 139.629 245.63 140.003 245.63 140.488C245.63 140.973 245.49 141.347 245.21 141.608C244.93 141.869 244.547 142 244.062 142H233.59Z" fill="#E5E1D6"></path>
<path d="M214.379 142C213.893 142 213.511 141.869 213.231 141.608C212.951 141.347 212.811 140.973 212.811 140.488C212.811 140.003 212.951 139.629 213.231 139.368C213.511 139.107 213.893 138.976 214.379 138.976H217.655V125.424H214.379C213.893 125.424 213.511 125.293 213.231 125.032C212.951 124.771 212.811 124.397 212.811 123.912C212.811 123.427 212.951 123.053 213.231 122.792C213.511 122.531 213.893 122.4 214.379 122.4H224.235C224.72 122.4 225.103 122.531 225.383 122.792C225.663 123.053 225.803 123.427 225.803 123.912C225.803 124.397 225.663 124.771 225.383 125.032C225.103 125.293 224.72 125.424 224.235 125.424H220.959V138.976H224.235C224.72 138.976 225.103 139.107 225.383 139.368C225.663 139.629 225.803 140.003 225.803 140.488C225.803 140.973 225.663 141.347 225.383 141.608C225.103 141.869 224.72 142 224.235 142H214.379Z" fill="#E5E1D6"></path>
<path d="M196.371 142C195.83 142 195.401 141.851 195.083 141.552C194.785 141.235 194.635 140.805 194.635 140.264V124.052C194.635 123.567 194.785 123.175 195.083 122.876C195.401 122.559 195.802 122.4 196.287 122.4C196.773 122.4 197.165 122.559 197.463 122.876C197.781 123.175 197.939 123.567 197.939 124.052V138.976H206.367C206.853 138.976 207.235 139.107 207.515 139.368C207.795 139.629 207.935 140.003 207.935 140.488C207.935 140.973 207.795 141.347 207.515 141.608C207.235 141.869 206.853 142 206.367 142H196.371Z" fill="#E5E1D6"></path>
<path d="M186.82 142C186.484 142 186.176 141.897 185.896 141.692C185.635 141.468 185.439 141.16 185.308 140.768L179.036 123.94L179.12 123.716C179.288 123.268 179.493 122.941 179.736 122.736C179.979 122.512 180.287 122.4 180.66 122.4C181.033 122.4 181.341 122.512 181.584 122.736C181.827 122.941 182.032 123.268 182.2 123.716L188.332 139.564C188.425 139.844 188.472 140.096 188.472 140.32C188.472 140.824 188.323 141.235 188.024 141.552C187.725 141.851 187.324 142 186.82 142ZM174.5 142C174.015 142 173.613 141.851 173.296 141.552C172.997 141.235 172.848 140.824 172.848 140.32C172.848 140.096 172.895 139.844 172.988 139.564L177.748 127.132L179.4 131.64L178.672 133.628H180.128L181.276 136.652H177.552L176.012 140.768C175.881 141.16 175.676 141.468 175.396 141.692C175.135 141.897 174.836 142 174.5 142Z" fill="#E5E1D6"></path>
<path d="M161.337 142C160.852 142 160.45 141.851 160.133 141.552C159.834 141.235 159.685 140.833 159.685 140.348V125.424H154.925C154.44 125.424 154.057 125.293 153.777 125.032C153.497 124.771 153.357 124.397 153.357 123.912C153.357 123.427 153.497 123.053 153.777 122.792C154.057 122.531 154.44 122.4 154.925 122.4H167.749C168.234 122.4 168.617 122.531 168.897 122.792C169.177 123.053 169.317 123.427 169.317 123.912C169.317 124.397 169.177 124.771 168.897 125.032C168.617 125.293 168.234 125.424 167.749 125.424H162.989V140.348C162.989 140.833 162.83 141.235 162.513 141.552C162.214 141.851 161.822 142 161.337 142Z" fill="#E5E1D6"></path>
<path d="M137.086 142C136.6 142 136.218 141.869 135.938 141.608C135.658 141.347 135.518 140.973 135.518 140.488C135.518 140.003 135.658 139.629 135.938 139.368C136.218 139.107 136.6 138.976 137.086 138.976H140.362V125.424H137.086C136.6 125.424 136.218 125.293 135.938 125.032C135.658 124.771 135.518 124.397 135.518 123.912C135.518 123.427 135.658 123.053 135.938 122.792C136.218 122.531 136.6 122.4 137.086 122.4H146.942C147.427 122.4 147.81 122.531 148.09 122.792C148.37 123.053 148.51 123.427 148.51 123.912C148.51 124.397 148.37 124.771 148.09 125.032C147.81 125.293 147.427 125.424 146.942 125.424H143.666V138.976H146.942C147.427 138.976 147.81 139.107 148.09 139.368C148.37 139.629 148.51 140.003 148.51 140.488C148.51 140.973 148.37 141.347 148.09 141.608C147.81 141.869 147.427 142 146.942 142H137.086Z" fill="#E5E1D6"></path>
<path d="M120.73 131.696C120.45 131.696 120.217 131.612 120.03 131.444C119.862 131.257 119.778 131.024 119.778 130.744C119.778 130.408 119.928 130.147 120.226 129.96C120.805 129.587 121.244 129.26 121.542 128.98C121.86 128.681 122.018 128.345 122.018 127.972C122.018 127.561 121.832 127.253 121.458 127.048C120.674 126.619 120.282 125.928 120.282 124.976C120.282 124.248 120.516 123.641 120.982 123.156C121.468 122.652 122.074 122.4 122.802 122.4C123.53 122.4 124.137 122.652 124.622 123.156C125.126 123.66 125.378 124.267 125.378 124.976V125.2C125.378 126.395 125.08 127.524 124.482 128.588C123.904 129.652 123.082 130.539 122.018 131.248C121.57 131.547 121.141 131.696 120.73 131.696Z" fill="#E5E1D6"></path>
<path d="M99.755 142C99.2137 142 98.7844 141.851 98.467 141.552C98.1684 141.235 98.019 140.805 98.019 140.264V124.052C98.019 123.567 98.1684 123.175 98.467 122.876C98.7844 122.559 99.1857 122.4 99.671 122.4C100.156 122.4 100.548 122.559 100.847 122.876C101.164 123.175 101.323 123.567 101.323 124.052V138.976H109.751C110.236 138.976 110.619 139.107 110.899 139.368C111.179 139.629 111.319 140.003 111.319 140.488C111.319 140.973 111.179 141.347 110.899 141.608C110.619 141.869 110.236 142 109.751 142H99.755Z" fill="#E5E1D6"></path>
<path d="M40.1198 142C39.5785 142 39.1491 141.851 38.8318 141.552C38.5331 141.235 38.3838 140.805 38.3838 140.264V124.136C38.3838 123.595 38.5331 123.175 38.8318 122.876C39.1491 122.559 39.5785 122.4 40.1198 122.4H50.0598C50.5451 122.4 50.9278 122.531 51.2078 122.792C51.4878 123.053 51.6278 123.427 51.6278 123.912C51.6278 124.397 51.4878 124.771 51.2078 125.032C50.9278 125.293 50.5451 125.424 50.0598 125.424H41.6878V130.408H47.7918C48.2771 130.408 48.6598 130.539 48.9398 130.8C49.2198 131.061 49.3598 131.435 49.3598 131.92C49.3598 132.405 49.2198 132.779 48.9398 133.04C48.6598 133.301 48.2771 133.432 47.7918 133.432H41.6878V138.976H50.5918C51.0771 138.976 51.4598 139.107 51.7398 139.368C52.0198 139.629 52.1598 140.003 52.1598 140.488C52.1598 140.973 52.0198 141.347 51.7398 141.608C51.4598 141.869 51.0771 142 50.5918 142H40.1198Z" fill="#E5E1D6"></path>
<path d="M20.8249 142C20.2835 142 19.8542 141.851 19.5369 141.552C19.2382 141.235 19.0889 140.805 19.0889 140.264V124.136C19.0889 123.595 19.2382 123.175 19.5369 122.876C19.8542 122.559 20.2835 122.4 20.8249 122.4H22.3929V142H20.8249ZM24.5769 142V138.976H24.9409C26.5649 138.976 27.8529 138.397 28.8049 137.24C29.7755 136.064 30.2609 134.384 30.2609 132.2C30.2609 130.016 29.7755 128.345 28.8049 127.188C27.8529 126.012 26.5649 125.424 24.9409 125.424H24.5769V122.4H25.0809C26.7795 122.4 28.2635 122.801 29.5329 123.604C30.8209 124.407 31.8102 125.555 32.5009 127.048C33.2102 128.523 33.5649 130.24 33.5649 132.2C33.5649 134.16 33.2102 135.887 32.5009 137.38C31.8102 138.855 30.8209 139.993 29.5329 140.796C28.2635 141.599 26.7795 142 25.0809 142H24.5769Z" fill="#E5E1D6"></path>
<path d="M276 0V161H0V0H276ZM3 158H273V3H3V158Z" fill="#E5E1D6"></path>
<path d="M274 106.5V109.5H3V106.5H274Z" fill="#E5E1D6"></path>
<path d="M274 55.5V58.5H2V55.5H274Z" fill="#E5E1D6"></path>
</svg>