<svg width="90" height="92" viewBox="0 0 90 92" fill="none" xmlns="http://www.w3.org/2000/svg">
<path d="M59.5281 47.4268L50.6368 51.9125C50.3228 52.061 50.0749 52.3248 49.9262 52.6217L45.4311 61.4942L40.9358 52.6217C40.7871 52.3083 40.5227 52.061 40.2252 51.9125L31.334 47.4268L40.2252 42.9411C40.5392 42.7926 40.7871 42.5288 40.9358 42.2319L45.4311 33.3594L49.9262 42.2319C50.0749 42.5453 50.3394 42.7926 50.6368 42.9411L59.5281 47.4268Z" fill="#9E2F21"></path>
<path d="M28.8054 69.2139C31.927 69.2139 34.4574 66.6887 34.4574 63.5738C34.4574 60.4588 31.927 57.9336 28.8054 57.9336C25.6839 57.9336 23.1533 60.4588 23.1533 63.5738C23.1533 66.6887 25.6839 69.2139 28.8054 69.2139Z" fill="#9E2F21"></path>
<path d="M28.8054 37.96C31.927 37.96 34.4574 35.4348 34.4574 32.3199C34.4574 29.2049 31.927 26.6797 28.8054 26.6797C25.6839 26.6797 23.1533 29.2049 23.1533 32.3199C23.1533 35.4348 25.6839 37.96 28.8054 37.96Z" fill="#9E2F21"></path>
<path d="M60.6852 68.0928C63.8067 68.0928 66.3372 65.5676 66.3372 62.4527C66.3372 59.3377 63.8067 56.8125 60.6852 56.8125C57.5637 56.8125 55.0332 59.3377 55.0332 62.4527C55.0332 65.5676 57.5637 68.0928 60.6852 68.0928Z" fill="#9E2F21"></path>
<path d="M60.6852 36.626C63.8067 36.626 66.3372 34.1008 66.3372 30.9859C66.3372 27.8709 63.8067 25.3457 60.6852 25.3457C57.5637 25.3457 55.0332 27.8709 55.0332 30.9859C55.0332 34.1008 57.5637 36.626 60.6852 36.626Z" fill="#9E2F21"></path>
<path d="M5.66871 12.6143C8.79024 12.6143 11.3207 10.0891 11.3207 6.97414C11.3207 3.85917 8.79024 1.33398 5.66871 1.33398C2.54718 1.33398 0.0166016 3.85917 0.0166016 6.97414C0.0166016 10.0891 2.54718 12.6143 5.66871 12.6143Z" fill="#9E2F21"></path>
<path d="M83.6736 11.2803C86.7951 11.2803 89.3256 8.75514 89.3256 5.64017C89.3256 2.52519 86.7951 0 83.6736 0C80.5521 0 78.0215 2.52519 78.0215 5.64017C78.0215 8.75514 80.5521 11.2803 83.6736 11.2803Z" fill="#9E2F21"></path>
<path d="M5.66871 90.8526C8.79024 90.8526 11.3207 88.3274 11.3207 85.2124C11.3207 82.0974 8.79024 79.5723 5.66871 79.5723C2.54718 79.5723 0.0166016 82.0974 0.0166016 85.2124C0.0166016 88.3274 2.54718 90.8526 5.66871 90.8526Z" fill="#9E2F21"></path>
<path d="M83.6736 89.5323C86.7951 89.5323 89.3256 87.0071 89.3256 83.8921C89.3256 80.7771 86.7951 78.252 83.6736 78.252C80.5521 78.252 78.0215 80.7771 78.0215 83.8921C78.0215 87.0071 80.5521 89.5323 83.6736 89.5323Z" fill="#9E2F21"></path>
<path d="M89.3259 47.2279L71.6096 40.7632C67.3458 39.213 62.8506 42.3629 62.8506 46.8816C62.8506 51.3179 67.1805 54.4513 71.4113 53.066L89.3425 47.2114L89.3259 47.2279Z" fill="#9E2F21"></path>
<path d="M0.0164417 46.5364L17.7328 53.0012C21.9966 54.5514 26.4918 51.4015 26.4918 46.8827C26.4918 42.4465 22.1619 39.3131 17.9311 40.6984L0 46.5529L0.0164417 46.5364Z" fill="#9E2F21"></path>
<path d="M45.0845 91.4646L51.5629 73.7855C53.1163 69.5307 49.9599 65.0449 45.4316 65.0449C40.986 65.0449 37.846 69.3657 39.2342 73.5876L45.1011 91.4811L45.0845 91.4646Z" fill="#9E2F21"></path>
<path d="M45.7785 3.21571L39.3002 20.8948C37.7467 25.1497 40.9033 29.6354 45.4315 29.6354C49.8771 29.6354 53.0171 25.3146 51.6289 21.0927L45.762 3.19922L45.7785 3.21571Z" fill="#9E2F21"></path>
</svg>