<svg width="159" height="163" viewBox="0 0 159 163" fill="none" xmlns="http://www.w3.org/2000/svg">
<path d="M113.193 53.5626L117.084 38.0479L127.634 40.694L127.145 42.6444L120.296 40.9267C119.498 40.7265 118.75 41.1749 118.55 41.9728L118.283 43.0366C118.083 43.8345 118.531 44.583 119.329 44.7832L125.734 46.3898L125.245 48.3402L118.84 46.7336C118.042 46.5335 117.293 46.9818 117.093 47.7797L116.337 50.794C116.137 51.5919 116.585 52.3404 117.383 52.5406L124.232 54.2583L123.743 56.2087L113.193 53.5626Z" fill="#DEA529"/>
<path d="M89.4992 47.6197L93.3906 32.105L97.225 33.0667L98.7181 44.49C98.8282 45.3658 99.6261 45.5659 100.137 44.8458L106.844 35.4794L110.479 36.3911L106.588 51.9058L104.371 51.3499L106.94 41.1102C107.184 40.135 106.32 39.8239 105.809 40.544L99.0076 50.0046L97.0793 49.521L95.6195 38.0589C95.5038 37.1111 94.5119 37.0272 94.2673 38.0024L91.7156 48.1756L89.4992 47.6197Z" fill="#DEA529"/>
<path d="M75.9231 44.4971C71.1579 43.3019 68.7338 38.9716 69.8623 34.4724C70.9908 29.9731 75.1716 27.2995 79.9368 28.4947C84.7021 29.6899 87.1206 34.0423 85.9976 38.5194C84.8747 42.9965 80.6884 45.6923 75.9231 44.4971ZM72.3003 35.0839C71.4609 38.4306 73.0546 41.5631 76.4457 42.4137C79.8368 43.2642 82.7146 41.2768 83.5596 37.9079C84.4046 34.539 82.8053 31.4287 79.4143 30.5781C76.0232 29.7276 73.1398 31.7371 72.3003 35.0839Z" fill="#DEA529"/>
<path d="M56.0397 39.5101C51.3631 38.3372 48.8116 33.9514 49.9346 29.4743C51.0575 24.9972 55.3768 22.3348 60.0534 23.5078C64.1537 24.5362 66.5342 27.9132 66.0878 31.8532L63.6276 31.2362C63.8902 28.4986 62.1684 26.2527 59.5308 25.5912C56.2949 24.7796 53.212 26.7391 52.3726 30.0858C51.5332 33.4326 53.3263 36.6151 56.5623 37.4267C59.1776 38.0827 61.7556 36.9153 62.8104 34.4943L65.2706 35.1113C63.838 38.6627 60.1179 40.533 56.0397 39.5101Z" fill="#DEA529"/>
<path d="M102.976 95.3214L113.051 81.3576L115.312 81.9247L117.604 98.9904L115.232 98.3956L114.649 93.6789C114.55 92.853 114.19 92.4094 113.414 92.2148L109.868 91.3253C109.092 91.1308 108.565 91.352 108.088 92.0334L105.347 95.9162L102.976 95.3214ZM110.54 88.5493C110.213 89.009 110.379 89.3805 110.911 89.5139L113.349 90.1254C113.881 90.2588 114.203 90.0097 114.131 89.4499L113.652 85.7252C113.563 85.0435 113.12 84.9323 112.721 85.4918L110.54 88.5493Z" fill="#DEA529"/>
<path d="M89.7571 136.326L99.8322 122.363L102.093 122.93L104.385 139.995L102.014 139.4L101.43 134.684C101.331 133.858 100.971 133.414 100.195 133.22L96.6489 132.33C95.8732 132.136 95.3465 132.357 94.8694 133.038L92.1286 136.921L89.7571 136.326ZM97.3216 129.554C96.9943 130.014 97.1603 130.385 97.6922 130.519L100.13 131.13C100.662 131.264 100.984 131.015 100.912 130.455L100.433 126.73C100.345 126.048 99.9015 125.937 99.502 126.497L97.3216 129.554Z" fill="#DEA529"/>
<path d="M79.0599 129.238C78.8038 130.823 79.6175 131.993 81.4571 132.455C83.3411 132.927 84.5609 132.197 84.9056 130.822C85.178 129.736 84.8241 128.705 83.2287 127.74L81.3287 126.58C79.2458 125.304 78.2164 123.491 78.7112 121.518C79.3115 119.124 81.8343 117.613 85.0038 118.408C87.9959 119.159 89.7066 121.449 89.2113 124.175L86.8176 123.575C87.035 121.957 86.1769 120.776 84.4703 120.348C82.675 119.897 81.3997 120.661 81.0662 121.991C80.7993 123.055 81.2698 123.903 82.6158 124.735L84.5159 125.895C86.9089 127.344 87.772 129.256 87.2661 131.273C86.6324 133.8 84.1595 135.206 80.9679 134.405C77.7985 133.61 76.1099 131.325 76.6219 128.627L79.0599 129.238Z" fill="#DEA529"/>
<path d="M57.7785 128.306L67.8537 114.342L70.1144 114.91L72.4067 131.975L70.0352 131.38L69.4514 126.664C69.3522 125.838 68.9924 125.394 68.2166 125.2L64.6704 124.31C63.8946 124.116 63.368 124.337 62.8908 125.018L60.1501 128.901L57.7785 128.306ZM65.3431 121.534C65.0158 121.994 65.1818 122.365 65.7137 122.499L68.1517 123.11C68.6837 123.244 69.0053 122.995 68.9337 122.435L68.4544 118.71C68.3662 118.028 67.923 117.917 67.5235 118.477L65.3431 121.534Z" fill="#DEA529"/>
<path d="M46.9342 125.869C42.2577 124.696 39.7062 120.31 40.8291 115.833C41.952 111.356 46.2713 108.693 50.9479 109.866C55.0483 110.895 57.4287 114.272 56.9823 118.212L54.5221 117.595C54.7847 114.857 53.0629 112.611 50.4254 111.95C47.1894 111.138 44.1066 113.097 43.2671 116.444C42.4277 119.791 44.2209 122.973 47.4568 123.785C50.0721 124.441 52.6501 123.274 53.705 120.853L56.1652 121.47C54.7326 125.021 51.0124 126.891 46.9342 125.869Z" fill="#DEA529"/>
<path d="M158.068 31.3654L125.052 163L-0.000717875 131.634L33.0156 0L158.068 31.3654ZM2.77159 129.974L123.391 160.228L155.296 33.0259L34.6761 2.77231L2.77159 129.974Z" fill="#DEA529"/>
<path d="M135.295 118.331L134.739 120.548L11.9519 89.7506L12.5078 87.5342L135.295 118.331Z" fill="#DEA529"/>
<path d="M145.754 76.6335L145.198 78.8499L21.9578 47.939L22.5137 45.7227L145.754 76.6335Z" fill="#DEA529"/>
<path d="M67.8441 102.593L65.6277 102.037L76.0863 60.3386L78.3027 60.8945L67.8441 102.593Z" fill="#DEA529"/>
<path d="M113.193 53.5626L117.084 38.0479L127.634 40.694L127.145 42.6444L120.296 40.9267C119.498 40.7265 118.75 41.1749 118.55 41.9728L118.283 43.0366C118.083 43.8345 118.531 44.583 119.329 44.7832L125.734 46.3898L125.245 48.3402L118.84 46.7336C118.042 46.5335 117.293 46.9818 117.093 47.7797L116.337 50.794C116.137 51.5919 116.585 52.3404 117.383 52.5406L124.232 54.2583L123.743 56.2087L113.193 53.5626Z" fill="#DEA529"/>
<path d="M89.4992 47.6197L93.3906 32.105L97.225 33.0667L98.7181 44.49C98.8282 45.3658 99.6261 45.5659 100.137 44.8458L106.844 35.4794L110.479 36.3911L106.588 51.9058L104.371 51.3499L106.94 41.1102C107.184 40.135 106.32 39.8239 105.809 40.544L99.0076 50.0046L97.0793 49.521L95.6195 38.0589C95.5038 37.1111 94.5119 37.0272 94.2673 38.0024L91.7156 48.1756L89.4992 47.6197Z" fill="#DEA529"/>
<path d="M75.9231 44.4971C71.1579 43.3019 68.7338 38.9716 69.8623 34.4724C70.9908 29.9731 75.1716 27.2995 79.9368 28.4947C84.7021 29.6899 87.1206 34.0423 85.9976 38.5194C84.8747 42.9965 80.6884 45.6923 75.9231 44.4971ZM72.3003 35.0839C71.4609 38.4306 73.0546 41.5631 76.4457 42.4137C79.8368 43.2642 82.7146 41.2768 83.5596 37.9079C84.4046 34.539 82.8053 31.4287 79.4143 30.5781C76.0232 29.7276 73.1398 31.7371 72.3003 35.0839Z" fill="#DEA529"/>
<path d="M56.0397 39.5101C51.3631 38.3372 48.8116 33.9514 49.9346 29.4743C51.0575 24.9972 55.3768 22.3348 60.0534 23.5078C64.1537 24.5362 66.5342 27.9132 66.0878 31.8532L63.6276 31.2362C63.8902 28.4986 62.1684 26.2527 59.5308 25.5912C56.2949 24.7796 53.212 26.7391 52.3726 30.0858C51.5332 33.4326 53.3263 36.6151 56.5623 37.4267C59.1776 38.0827 61.7556 36.9153 62.8104 34.4943L65.2706 35.1113C63.838 38.6627 60.1179 40.533 56.0397 39.5101Z" fill="#DEA529"/>
<path d="M102.976 95.3214L113.051 81.3576L115.312 81.9247L117.604 98.9904L115.232 98.3956L114.649 93.6789C114.55 92.853 114.19 92.4094 113.414 92.2148L109.868 91.3253C109.092 91.1308 108.565 91.352 108.088 92.0334L105.347 95.9162L102.976 95.3214ZM110.54 88.5493C110.213 89.009 110.379 89.3805 110.911 89.5139L113.349 90.1254C113.881 90.2588 114.203 90.0097 114.131 89.4499L113.652 85.7252C113.563 85.0435 113.12 84.9323 112.721 85.4918L110.54 88.5493Z" fill="#DEA529"/>
<path d="M89.7571 136.326L99.8322 122.363L102.093 122.93L104.385 139.995L102.014 139.4L101.43 134.684C101.331 133.858 100.971 133.414 100.195 133.22L96.6489 132.33C95.8732 132.136 95.3465 132.357 94.8694 133.038L92.1286 136.921L89.7571 136.326ZM97.3216 129.554C96.9943 130.014 97.1603 130.385 97.6922 130.519L100.13 131.13C100.662 131.264 100.984 131.015 100.912 130.455L100.433 126.73C100.345 126.048 99.9015 125.937 99.502 126.497L97.3216 129.554Z" fill="#DEA529"/>
<path d="M79.0599 129.238C78.8038 130.823 79.6175 131.993 81.4571 132.455C83.3411 132.927 84.5609 132.197 84.9056 130.822C85.178 129.736 84.8241 128.705 83.2287 127.74L81.3287 126.58C79.2458 125.304 78.2164 123.491 78.7112 121.518C79.3115 119.124 81.8343 117.613 85.0038 118.408C87.9959 119.159 89.7066 121.449 89.2113 124.175L86.8176 123.575C87.035 121.957 86.1769 120.776 84.4703 120.348C82.675 119.897 81.3997 120.661 81.0662 121.991C80.7993 123.055 81.2698 123.903 82.6158 124.735L84.5159 125.895C86.9089 127.344 87.772 129.256 87.2661 131.273C86.6324 133.8 84.1595 135.206 80.9679 134.405C77.7985 133.61 76.1099 131.325 76.6219 128.627L79.0599 129.238Z" fill="#DEA529"/>
<path d="M57.7785 128.306L67.8537 114.342L70.1144 114.91L72.4067 131.975L70.0352 131.38L69.4514 126.664C69.3522 125.838 68.9924 125.394 68.2166 125.2L64.6704 124.31C63.8946 124.116 63.368 124.337 62.8908 125.018L60.1501 128.901L57.7785 128.306ZM65.3431 121.534C65.0158 121.994 65.1818 122.365 65.7137 122.499L68.1517 123.11C68.6837 123.244 69.0053 122.995 68.9337 122.435L68.4544 118.71C68.3662 118.028 67.923 117.917 67.5235 118.477L65.3431 121.534Z" fill="#DEA529"/>
<path d="M46.9342 125.869C42.2577 124.696 39.7062 120.31 40.8291 115.833C41.952 111.356 46.2713 108.693 50.9479 109.866C55.0483 110.895 57.4287 114.272 56.9823 118.212L54.5221 117.595C54.7847 114.857 53.0629 112.611 50.4254 111.95C47.1894 111.138 44.1066 113.097 43.2671 116.444C42.4277 119.791 44.2209 122.973 47.4568 123.785C50.0721 124.441 52.6501 123.274 53.705 120.853L56.1652 121.47C54.7326 125.021 51.0124 126.891 46.9342 125.869Z" fill="#DEA529"/>
<path d="M158.068 31.3654L125.052 163L-0.000717875 131.634L33.0156 0L158.068 31.3654ZM2.77159 129.974L123.391 160.228L155.296 33.0259L34.6761 2.77231L2.77159 129.974Z" fill="#DEA529"/>
<path d="M135.295 118.331L134.739 120.548L11.9519 89.7506L12.5078 87.5342L135.295 118.331Z" fill="#DEA529"/>
<path d="M145.754 76.6335L145.198 78.8499L21.9578 47.939L22.5137 45.7227L145.754 76.6335Z" fill="#DEA529"/>
<path d="M67.8441 102.593L65.6277 102.037L76.0863 60.3386L78.3027 60.8945L67.8441 102.593Z" fill="#DEA529"/>
<path d="M48.0045 75.3837L46.0093 75.8987C45.8358 75.9467 45.6769 76.044 45.5599 76.1885L44.2392 77.8057L43.7514 75.7806C43.7058 75.6045 43.6116 75.4437 43.4707 75.326L41.8931 73.9972L43.8883 73.4822C44.0618 73.4343 44.2207 73.3369 44.3377 73.1925L45.6584 71.5752L46.1462 73.6003C46.1918 73.7764 46.286 73.9373 46.4269 74.055L48.0045 75.3837Z" fill="#DEA529"/>
<path d="M40.6438 73.463L37.1297 71.1637C36.2812 70.6124 35.1399 71.0854 34.9148 72.0901C34.6962 73.069 35.4731 73.9774 36.456 73.8855L40.6416 73.4717L40.6438 73.463Z" fill="#DEA529"/>
<path d="M49.2488 75.68L52.7629 77.9793C53.6114 78.5306 54.7527 78.0576 54.9778 77.0529C55.1964 76.0741 54.4195 75.1657 53.4366 75.2576L49.251 75.6714L49.2488 75.68Z" fill="#DEA529"/>
<path d="M44.0336 79.0773L41.741 82.6736C41.1913 83.542 41.6479 84.6902 42.6334 84.91C43.5936 85.1234 44.4937 84.3246 44.4124 83.3254L44.0441 79.0708L44.0336 79.0773Z" fill="#DEA529"/>
<path d="M45.9673 70.2718L48.2599 66.6754C48.818 65.8092 48.3636 64.6523 47.3781 64.4326C46.4179 64.2192 45.5178 65.018 45.5991 66.0172L45.9673 70.2718Z" fill="#DEA529"/>
<path d="M48.0045 75.3837L46.0093 75.8987C45.8358 75.9467 45.6769 76.044 45.5599 76.1885L44.2392 77.8057L43.7514 75.7806C43.7058 75.6045 43.6116 75.4437 43.4707 75.326L41.8931 73.9972L43.8883 73.4822C44.0618 73.4343 44.2207 73.3369 44.3377 73.1925L45.6584 71.5752L46.1462 73.6003C46.1918 73.7764 46.286 73.9373 46.4269 74.055L48.0045 75.3837Z" fill="#DEA529"/>
<path d="M40.6438 73.463L37.1297 71.1637C36.2812 70.6124 35.1399 71.0854 34.9148 72.0901C34.6962 73.069 35.4731 73.9774 36.456 73.8855L40.6416 73.4717L40.6438 73.463Z" fill="#DEA529"/>
<path d="M49.2488 75.68L52.7629 77.9793C53.6114 78.5306 54.7527 78.0576 54.9778 77.0529C55.1964 76.0741 54.4195 75.1657 53.4366 75.2576L49.251 75.6714L49.2488 75.68Z" fill="#DEA529"/>
<path d="M44.0336 79.0773L41.741 82.6736C41.1913 83.542 41.6479 84.6902 42.6334 84.91C43.5936 85.1234 44.4937 84.3246 44.4124 83.3254L44.0441 79.0708L44.0336 79.0773Z" fill="#DEA529"/>
<path d="M45.9673 70.2718L48.2599 66.6754C48.818 65.8092 48.3636 64.6523 47.3781 64.4326C46.4179 64.2192 45.5178 65.018 45.5991 66.0172L45.9673 70.2718Z" fill="#DEA529"/>
</svg>
