<svg width="135" height="56" viewBox="0 0 135 56" fill="none" xmlns="http://www.w3.org/2000/svg">
<path d="M73.3862 36.1234C73.106 36.0967 72.8792 35.9634 72.7057 35.7502C72.5323 35.5235 72.4656 35.2703 72.4923 34.9904L72.5456 34.5105C72.6524 33.4441 73.0927 32.5644 73.8398 31.8846C74.587 31.2047 75.5744 30.5649 76.7886 29.9518C77.6558 29.5119 78.3363 29.0853 78.8033 28.6588C79.2836 28.2322 79.5505 27.7257 79.6038 27.1526C79.6705 26.5261 79.5638 26.0062 79.2569 25.593C78.9634 25.1798 78.483 24.9398 77.8026 24.8732C77.1221 24.8065 76.6151 24.9398 76.2015 25.2997C75.7879 25.6463 75.521 26.1262 75.4143 26.7127C75.3609 27.0193 75.2542 27.2459 75.094 27.4192C74.9339 27.5791 74.7205 27.6457 74.4536 27.6191C74.1868 27.5924 73.9866 27.4725 73.8532 27.2725C73.7198 27.0726 73.6797 26.8193 73.7064 26.5394C73.7865 25.8329 74.0266 25.2331 74.4403 24.7266C74.8539 24.22 75.3742 23.8468 76.0147 23.6069C76.6418 23.367 77.2956 23.287 77.9627 23.3536C79.0835 23.4736 79.9507 23.8868 80.5645 24.5933C81.1783 25.2997 81.4184 26.2062 81.3117 27.3392C81.2183 28.2189 80.8447 28.9654 80.1776 29.5785C79.5104 30.1917 78.6165 30.7782 77.4957 31.3514C76.5084 31.8579 75.7345 32.3778 75.1608 32.8976C74.587 33.4175 74.2668 34.0306 74.2001 34.7104L79.884 35.3103C80.1909 35.3369 80.4177 35.4169 80.5645 35.5502C80.7113 35.6702 80.7646 35.8834 80.7379 36.1634C80.7113 36.4433 80.6045 36.6299 80.4311 36.7365C80.2576 36.8298 80.0308 36.8565 79.7239 36.8298L73.3728 36.1634L73.3862 36.1234Z" fill="#9D2D21"></path>
<path d="M89.1438 37.9228C88.0363 37.6829 87.2224 37.1364 86.7021 36.2966C86.1817 35.4568 85.9949 34.4438 86.115 33.2708L86.6087 28.6054C86.7288 27.4324 87.1424 26.486 87.8095 25.7795C88.49 25.0597 89.3973 24.6999 90.5314 24.6865L90.3713 26.2061C89.7442 26.2461 89.2638 26.4993 88.9303 26.9259C88.5967 27.3658 88.3966 27.9389 88.3165 28.6321L87.7962 33.5907C87.7295 34.2172 87.8229 34.817 88.0897 35.3635C88.3432 35.9234 88.7568 36.2699 89.3039 36.4032L89.1438 37.9228ZM91.6388 31.298L89.0904 33.8306L89.3439 31.4046L91.8923 28.872L91.6388 31.298ZM90.5981 36.5499C91.2252 36.4965 91.7055 36.2566 92.0391 35.8167C92.3727 35.3769 92.5728 34.8037 92.6529 34.1105L93.1732 29.1519C93.32 27.699 92.8263 26.7659 91.6788 26.3394L91.839 24.8198C92.9331 25.0731 93.7469 25.6196 94.2673 26.4727C94.7877 27.3258 94.9878 28.3255 94.8677 29.4852L94.374 34.1505C94.254 35.3236 93.8537 36.2566 93.1732 36.9764C92.4927 37.6962 91.5854 38.0561 90.4513 38.0694L90.6115 36.5499H90.5981Z" fill="#9D2D21"></path>
<path d="M100.031 38.9227C99.7511 38.896 99.5243 38.7627 99.3508 38.5495C99.1773 38.3228 99.1106 38.0696 99.1373 37.7897L99.1907 37.3098C99.2974 36.2434 99.7377 35.3637 100.485 34.6839C101.232 34.0041 102.219 33.3642 103.434 32.7511C104.301 32.3112 104.981 31.8847 105.448 31.4581C105.929 31.0316 106.196 30.525 106.249 29.9519C106.316 29.3254 106.209 28.8055 105.902 28.3923C105.608 27.9791 105.128 27.7392 104.448 27.6725C103.767 27.6059 103.26 27.7392 102.847 28.0991C102.433 28.4456 102.166 28.9255 102.059 29.512C102.006 29.8186 101.899 30.0452 101.739 30.2185C101.579 30.3784 101.366 30.4451 101.099 30.4184C100.832 30.3917 100.632 30.2718 100.498 30.0718C100.365 29.8719 100.325 29.6186 100.351 29.3387C100.432 28.6322 100.672 28.0324 101.085 27.5259C101.499 27.0194 102.019 26.6461 102.66 26.4062C103.287 26.1663 103.941 26.0863 104.608 26.1529C105.729 26.2729 106.596 26.6861 107.21 27.3926C107.823 28.0991 108.063 29.0055 107.957 30.1385C107.863 31.0182 107.49 31.7647 106.823 32.3779C106.156 32.991 105.262 33.5775 104.141 34.1507C103.153 34.6572 102.38 35.1771 101.806 35.6969C101.232 36.2168 100.912 36.8299 100.845 37.5097L106.529 38.1096C106.836 38.1362 107.063 38.2162 107.21 38.3495C107.356 38.4695 107.41 38.6827 107.383 38.9627C107.356 39.2426 107.25 39.4292 107.076 39.5358C106.903 39.6292 106.676 39.6558 106.369 39.6291L100.018 38.9627L100.031 38.9227Z" fill="#9D2D21"></path>
<path d="M112.787 37.1231C112.507 37.0965 112.266 37.0032 112.093 36.8299C111.919 36.6699 111.839 36.4433 111.879 36.1634C111.906 35.9501 111.973 35.7635 112.106 35.6036L117.31 29.5386L117.03 32.2178L114.028 35.7102L116.429 35.9634L116.269 37.483L112.787 37.1231ZM117.47 40.4822C117.35 40.2823 117.296 40.029 117.337 39.7357L118.564 28.0723C118.818 27.7924 119.124 27.6591 119.458 27.6991C119.792 27.7391 120.005 27.8457 120.098 28.0457C120.192 28.2456 120.232 28.5122 120.192 28.8321L119.405 36.2834L120.645 36.4167C121.273 36.4833 121.566 36.7766 121.513 37.2698C121.459 37.763 121.112 38.0029 120.485 37.9362L119.244 37.8029L119.018 39.909C118.991 40.1889 118.884 40.4289 118.711 40.6022C118.537 40.7754 118.311 40.8421 118.044 40.8154C117.777 40.7888 117.577 40.6688 117.457 40.4689L117.47 40.4822Z" fill="#9D2D21"></path>
<path d="M12.6375 29.7251C12.3574 29.6984 12.1305 29.5785 11.9571 29.3652C11.7836 29.1519 11.7169 28.912 11.7436 28.6187L12.9044 17.6751C12.9311 17.3952 13.0512 17.1686 13.2646 16.9953C13.4781 16.822 13.7183 16.7554 14.0118 16.782L20.563 17.4752C21.2035 17.5418 21.497 17.8484 21.4436 18.3949C21.3902 18.9414 21.0433 19.168 20.4029 19.1014L14.6256 18.4882L14.2253 22.3272L18.4816 22.7804C19.0953 22.847 19.3755 23.1536 19.3222 23.6868C19.2688 24.22 18.9352 24.4599 18.3081 24.4066L14.0519 23.9534L13.6115 28.1655L19.669 28.8053C20.3228 28.872 20.6164 29.1786 20.563 29.7251C20.5096 30.2716 20.1494 30.4982 19.4956 30.4316L12.6642 29.7118L12.6375 29.7251ZM16.5069 15.1825C16.3734 14.9959 16.3201 14.7959 16.3468 14.5827C16.3868 14.2628 16.5736 14.0361 16.9205 13.8895L19.2955 12.9831C19.4823 12.9165 19.6424 12.8898 19.8025 12.9165C20.0293 12.9431 20.2028 13.0364 20.3362 13.2097C20.4696 13.383 20.5363 13.5696 20.5096 13.7829C20.4696 14.1028 20.3095 14.3294 20.0293 14.4494L17.4008 15.4624C17.2541 15.5024 17.1206 15.5291 17.0272 15.5157C16.8004 15.4891 16.627 15.3824 16.4935 15.2092L16.5069 15.1825Z" fill="#9D2D21"></path>
<path d="M28.702 31.138C28.5686 30.9381 28.5152 30.6848 28.5419 30.3916L29.636 20.0745L26.287 19.7279C25.6199 19.6613 25.313 19.3547 25.3663 18.8082C25.4197 18.2616 25.78 18.0217 26.4471 18.1017L34.9196 18.9948C35.5867 19.0614 35.8936 19.368 35.8402 19.9145C35.7869 20.461 35.4266 20.6876 34.7595 20.621L31.4105 20.2744L30.3164 30.5915C30.2898 30.8848 30.183 31.1247 30.0095 31.2847C29.8361 31.4446 29.6093 31.5246 29.3291 31.4846C29.0489 31.4446 28.8354 31.338 28.702 31.138Z" fill="#9D2D21"></path>
<path d="M39.2959 32.5243C39.0157 32.4976 38.7889 32.3776 38.6155 32.1644C38.442 31.9511 38.3753 31.7112 38.402 31.4179L39.5628 20.4743C39.5895 20.1944 39.7095 19.9678 39.923 19.7945C40.1365 19.6212 40.3767 19.5546 40.6702 19.5812L47.2214 20.2744C47.8618 20.341 48.1554 20.6476 48.102 21.1941C48.0486 21.7406 47.7017 21.9672 47.0613 21.9006L41.284 21.2874L40.8837 25.1263L45.14 25.5795C45.7537 25.6462 46.0339 25.9528 45.9805 26.486C45.9272 27.0191 45.5936 27.2591 44.9665 27.2058L40.7102 26.7525L40.2699 30.9647L46.3275 31.6045C46.9812 31.6712 47.2748 31.9778 47.2214 32.5243C47.168 33.0708 46.8078 33.2974 46.154 33.2307L39.3226 32.5109L39.2959 32.5243ZM43.1653 17.995C43.0318 17.8084 42.9785 17.6084 43.0052 17.3952C43.0452 17.0753 43.232 16.8486 43.5789 16.702L45.9539 15.7956C46.1407 15.729 46.3008 15.7023 46.4609 15.729C46.6877 15.7556 46.8612 15.8489 46.9946 16.0222C47.128 16.1955 47.1947 16.3821 47.168 16.5954C47.128 16.9153 46.9679 17.1419 46.6877 17.2619L44.0592 18.2749C43.9125 18.3149 43.779 18.3416 43.6856 18.3282C43.4588 18.3016 43.2853 18.1949 43.1519 18.0217L43.1653 17.995Z" fill="#9D2D21"></path>
<path d="M133.277 14.3301L5.08551 0.824463L0.824617 41.1893L129.016 54.6949L133.277 14.3301Z" stroke="#9D2D21" stroke-width="1.5" stroke-miterlimit="10"></path>
<path d="M62.2318 6.83813L57.9755 47.2002" stroke="#9D2D21" stroke-width="1.5" stroke-miterlimit="10"></path>
</svg>