<svg width="82" height="94" viewBox="0 0 82 94" fill="none" xmlns="http://www.w3.org/2000/svg">
<path d="M15.7846 26.1853C15.6112 26.012 15.5044 25.772 15.4777 25.4921L14.5304 14.5085C14.5037 14.2286 14.5571 13.9887 14.7039 13.7887C14.8373 13.5888 15.0374 13.4822 15.3043 13.4555C15.4777 13.4422 15.6378 13.4555 15.798 13.5221C15.9581 13.5888 16.0781 13.6688 16.1582 13.8021L22.4826 22.1197L21.7754 13.9087C21.7487 13.6288 21.8154 13.3755 21.9622 13.1756C22.109 12.9756 22.3091 12.8557 22.5626 12.829C22.8295 12.8023 23.0696 12.8823 23.2431 13.0556C23.4165 13.2289 23.5366 13.4688 23.55 13.7487L24.4973 24.7323C24.524 24.9989 24.4573 25.2389 24.3105 25.4521C24.1637 25.6654 23.9502 25.772 23.6967 25.7987C23.3098 25.8254 23.0296 25.7187 22.8295 25.4655L16.5585 17.1345L17.2656 25.3455C17.2923 25.6254 17.2256 25.8787 17.0788 26.0786C16.9321 26.2786 16.7186 26.3985 16.4651 26.4252C16.1982 26.4519 15.9714 26.3719 15.7846 26.1986V26.1853Z" fill="#9D2D21"></path>
<path d="M30.0478 25.2522C29.7676 25.2789 29.5141 25.1989 29.314 25.0256C29.1138 24.8523 28.9937 24.6257 28.9671 24.3325L28.0197 13.3622C27.9931 13.0823 28.0731 12.829 28.2466 12.6291C28.42 12.4291 28.6468 12.3092 28.9404 12.2825L35.5049 11.7227C36.1453 11.6693 36.4923 11.9093 36.5323 12.4558C36.5723 13.0023 36.2788 13.2956 35.6383 13.3489L29.8477 13.8421L30.1812 17.6943L34.4508 17.3211C35.0646 17.2678 35.3982 17.521 35.4515 18.0542C35.5049 18.5874 35.2114 18.894 34.5976 18.9473L30.328 19.3205L30.6882 23.546L36.7458 23.0262C37.3995 22.9729 37.7465 23.2128 37.7998 23.7593C37.8532 24.3058 37.5463 24.5991 36.8925 24.6524L30.0478 25.2389V25.2522ZM31.0885 10.2431C30.9284 10.0831 30.835 9.89651 30.8083 9.68324C30.7816 9.36333 30.9284 9.09674 31.2486 8.89679L33.4101 7.5505C33.5702 7.4572 33.7437 7.39055 33.9038 7.37722C34.1306 7.36389 34.3174 7.41721 34.4909 7.56383C34.6643 7.71046 34.7577 7.88374 34.7711 8.08369C34.7978 8.4036 34.6777 8.65686 34.4242 8.83014L32.0358 10.3231C31.8891 10.403 31.769 10.443 31.6756 10.443C31.4488 10.4564 31.262 10.3897 31.1019 10.2431H31.0885Z" fill="#9D2D21"></path>
<path d="M56.5994 54.684C56.426 54.5374 56.3193 54.3241 56.3059 54.0575C56.3059 53.9242 56.3059 53.7776 56.3459 53.631L58.9077 44.6068L60.0285 47.0328L59.4547 49.2988L61.0425 49.1656L61.763 50.7518L58.9878 50.9917L58.0271 54.2041C57.907 54.6307 57.6535 54.8573 57.2666 54.8839C56.9997 54.9106 56.7729 54.844 56.5994 54.6973V54.684ZM60.2553 39.8482L57.6402 38.7818C57.36 38.6618 57.1999 38.4352 57.1732 38.1153C57.1598 37.902 57.2132 37.7154 57.36 37.5555C57.5067 37.3955 57.6802 37.2889 57.907 37.2755C58.0671 37.2622 58.2406 37.2889 58.414 37.3555L60.7757 38.3153C61.1226 38.4619 61.3094 38.6885 61.336 39.0084C61.3494 39.235 61.296 39.4349 61.1626 39.6082C61.0292 39.7815 60.8557 39.8882 60.6289 39.9015C60.5355 39.9015 60.4021 39.9015 60.2553 39.8348V39.8482ZM64.6317 53.6176L59.4814 42.6207L59.5348 42.4074C59.6015 42.1542 59.6816 41.9542 59.7883 41.7943C59.895 41.6477 60.0552 41.5544 60.2553 41.541C60.4554 41.5277 60.6289 41.581 60.749 41.701C60.8691 41.8209 60.9891 42.0076 61.1092 42.2608L66.1794 52.7645C66.2461 52.9112 66.2728 53.0445 66.2861 53.1778C66.3128 53.4444 66.2461 53.671 66.0993 53.8442C65.9526 54.0175 65.7391 54.1108 65.4722 54.1375C65.0853 54.1642 64.7918 53.9909 64.605 53.591L64.6317 53.6176Z" fill="#9D2D21"></path>
<path d="M19.8407 86.102C19.6673 85.9287 19.5739 85.6887 19.5472 85.3955L18.5999 74.4252C18.5732 74.1586 18.6532 73.9054 18.84 73.6921C19.0268 73.4788 19.2536 73.3589 19.5338 73.3322L20.2944 73.2656L21.3217 85.2355C21.3484 85.5288 21.2817 85.782 21.1483 85.982C21.0015 86.1819 20.788 86.2886 20.5212 86.3152C20.241 86.3419 20.0142 86.2619 19.8407 86.0886V86.102ZM27.019 85.3155L23.59 80.8634L22.3091 80.9701L22.1623 79.3438L23.8301 79.1972C24.5907 79.1306 25.1644 78.8773 25.5113 78.4508C25.8715 78.0242 26.0183 77.451 25.9516 76.7579C25.8849 76.0648 25.6447 75.4783 25.2178 75.105C24.7908 74.7318 24.2037 74.5719 23.4299 74.6385L21.762 74.7851L21.6153 73.1589L23.1763 73.0256C24.5106 72.9057 25.578 73.1856 26.3786 73.8387C27.1791 74.4919 27.6194 75.4249 27.7262 76.6113C27.8062 77.4777 27.6461 78.2375 27.2592 78.904C26.8722 79.5705 26.3118 80.0903 25.578 80.4502L28.3666 84.0225C28.54 84.2358 28.6334 84.4491 28.6468 84.6624C28.6735 84.9556 28.6068 85.1955 28.4333 85.3822C28.2732 85.5688 28.0464 85.6621 27.7795 85.6887C27.486 85.7154 27.2191 85.5821 26.9923 85.3155H27.019Z" fill="#9D2D21"></path>
<path d="M36.4121 85.1021C34.9445 85.0488 33.757 84.4623 32.8764 83.3026C31.9958 82.143 31.4754 80.6634 31.3153 78.8506C31.1552 77.0377 31.422 75.4648 32.0892 74.1985C32.7563 72.9189 33.8237 72.1324 35.2647 71.8392L35.4114 73.4654C34.5308 73.732 33.9171 74.3318 33.5302 75.2649C33.1566 76.2113 33.0231 77.3443 33.1299 78.6906C33.2366 80.0369 33.5702 81.1566 34.1039 82.023C34.6376 82.8894 35.3581 83.3693 36.2654 83.4626L36.4121 85.0888V85.1021ZM37.613 83.356C38.4802 83.0894 39.1073 82.4895 39.4943 81.5565C39.8679 80.6101 40.0013 79.477 39.8945 78.1308C39.7878 76.7845 39.4542 75.6648 38.9205 74.7984C38.3868 73.9319 37.6663 73.4521 36.759 73.3588L36.6123 71.7325C38.08 71.7859 39.2674 72.3857 40.1481 73.532C41.0287 74.6784 41.549 76.158 41.7091 77.9841C41.8692 79.8103 41.6024 81.3565 40.9353 82.6362C40.2548 83.9158 39.2007 84.7023 37.7597 84.9955L37.613 83.3693V83.356Z" fill="#9D2D21"></path>
<path d="M45.9921 83.8492C45.8186 83.6759 45.7252 83.436 45.6986 83.1428L44.7512 72.1592C44.7246 71.8792 44.7779 71.6393 44.9247 71.4394C45.0581 71.2394 45.2716 71.1328 45.5385 71.1061C45.7653 71.0928 45.9387 71.1061 46.0588 71.1994C46.1789 71.2794 46.2856 71.386 46.379 71.5327L49.8481 77.0778L52.3165 71.0261C52.3698 70.8662 52.4632 70.7462 52.57 70.6529C52.6767 70.5596 52.8502 70.493 53.0636 70.4796C53.3305 70.453 53.5573 70.533 53.7308 70.7062C53.9042 70.8795 53.9976 71.1061 54.0243 71.386L54.9716 82.3696C54.9983 82.6629 54.9449 82.9161 54.7982 83.1161C54.6514 83.316 54.4513 83.4227 54.1577 83.4493C53.8642 83.476 53.6507 83.396 53.4773 83.2227C53.3038 83.0494 53.2104 82.8095 53.1837 82.5163L52.5033 74.6251L50.7821 78.8639C50.6353 79.1972 50.3951 79.3838 50.0482 79.4105C49.7013 79.4371 49.4345 79.3038 49.2343 78.9972L46.806 75.1183L47.4865 83.0094C47.5131 83.3027 47.4598 83.556 47.313 83.7559C47.1662 83.9559 46.9661 84.0625 46.6726 84.0892C46.379 84.1158 46.1655 84.0358 45.9921 83.8625V83.8492Z" fill="#9D2D21"></path>
<path d="M60.3887 82.8895C60.1085 82.9161 59.855 82.8362 59.6548 82.6629C59.4547 82.4896 59.3346 82.263 59.3079 81.9697L58.3606 70.9995C58.3339 70.7195 58.414 70.4663 58.5874 70.2663C58.7609 70.0664 58.9877 69.9464 59.2813 69.9198L65.8458 69.3599C66.4862 69.3066 66.8331 69.5465 66.8732 70.0931C66.9132 70.6396 66.6197 70.9328 65.9792 70.9861L60.1886 71.4793L60.5221 75.3316L64.7917 74.9584C65.4055 74.905 65.739 75.1583 65.7924 75.6915C65.8458 76.2247 65.5523 76.5312 64.9385 76.5846L60.6689 76.9578L61.0291 81.1833L67.0866 80.6634C67.7404 80.6101 68.0873 80.85 68.1407 81.3966C68.1941 81.9431 67.8872 82.2363 67.2334 82.2896L60.3887 82.8761V82.8895Z" fill="#9D2D21"></path>
<path d="M73.1808 0.811527L0.811646 7.03516L8.23256 93.1591L80.6017 86.9355L73.1808 0.811527Z" stroke="#9D2D21" stroke-width="1.5" stroke-miterlimit="10"></path>
<path d="M75.5726 28.5446L3.04248 34.7828" stroke="#9D2D21" stroke-width="1.5" stroke-miterlimit="10"></path>
<path d="M78.3077 60.269L5.77765 66.5073" stroke="#9D2D21" stroke-width="1.5" stroke-miterlimit="10"></path>
</svg>