<svg width="245" height="80" viewBox="0 0 245 80" fill="none" xmlns="http://www.w3.org/2000/svg">
<g clip-path="url(#clip0_4023_16641)">
<path d="M92.2 34.7804C91.89 34.4704 91.74 34.0804 91.74 33.5904V17.3804C91.74 16.8404 91.89 16.4104 92.2 16.1104C92.51 15.8104 92.93 15.6504 93.47 15.6504H95.04V33.6004C95.04 34.0904 94.89 34.4804 94.58 34.7904C94.27 35.1004 93.87 35.2504 93.39 35.2504C92.91 35.2504 92.51 35.1004 92.2 34.7904V34.7804ZM102.71 34.1804L98.76 27.7404H97.22V24.7204H98.87C100.05 24.7204 100.92 24.4704 101.5 23.9804C102.08 23.4904 102.37 22.7204 102.37 21.7004C102.37 20.6804 102.08 19.9104 101.5 19.4204C100.92 18.9304 100.04 18.6804 98.87 18.6804H97.22V15.6604H99.12C101.27 15.6604 102.9 16.2204 104.01 17.3404C105.12 18.4604 105.68 19.9204 105.68 21.7104C105.68 23.1704 105.38 24.3204 104.78 25.1804C104.18 26.0404 103.33 26.7104 102.23 27.2004L105.51 32.4404C105.81 32.9304 105.96 33.3604 105.96 33.7304C105.96 34.2004 105.82 34.5704 105.53 34.8504C105.24 35.1304 104.87 35.2704 104.42 35.2704C103.71 35.2704 103.14 34.9204 102.71 34.2104V34.1804Z" fill="#E5E1D6"></path>
<path d="M123.51 35.2502C123.03 35.2502 122.64 35.1202 122.36 34.8602C122.08 34.6002 121.94 34.2302 121.94 33.7402C121.94 33.2502 122.08 32.8802 122.36 32.6202C122.64 32.3602 123.02 32.2302 123.51 32.2302H126.79V18.6802H123.51C123.03 18.6802 122.64 18.5502 122.36 18.2902C122.08 18.0302 121.94 17.6602 121.94 17.1702C121.94 16.6802 122.08 16.3102 122.36 16.0502C122.64 15.7902 123.02 15.6602 123.51 15.6602H133.37C133.85 15.6602 134.24 15.7902 134.52 16.0502C134.8 16.3102 134.94 16.6802 134.94 17.1702C134.94 17.6602 134.8 18.0302 134.52 18.2902C134.24 18.5502 133.86 18.6802 133.37 18.6802H130.09V32.2302H133.37C133.85 32.2302 134.24 32.3602 134.52 32.6202C134.8 32.8802 134.94 33.2502 134.94 33.7402C134.94 34.2302 134.8 34.6002 134.52 34.8602C134.24 35.1202 133.86 35.2502 133.37 35.2502H123.51Z" fill="#E5E1D6"></path>
<path d="M158.71 35.25C156.53 34.97 154.84 33.92 153.66 32.1C152.47 30.28 151.88 28 151.88 25.25C151.88 23.48 152.14 21.87 152.66 20.42C153.18 18.97 153.96 17.8 154.98 16.89C156.01 15.99 157.25 15.44 158.7 15.25V18.33C157.56 18.65 156.7 19.43 156.11 20.67C155.52 21.91 155.23 23.44 155.23 25.25C155.23 27.06 155.52 28.59 156.11 29.83C156.7 31.07 157.56 31.85 158.7 32.17V35.25H158.71ZM160.9 32.17C162.04 31.85 162.9 31.07 163.49 29.83C164.08 28.59 164.37 27.06 164.37 25.25C164.37 23.44 164.08 21.91 163.49 20.67C162.9 19.43 162.04 18.65 160.9 18.33V15.25C162.36 15.44 163.6 15.98 164.62 16.89C165.65 17.8 166.42 18.97 166.94 20.42C167.46 21.87 167.72 23.48 167.72 25.25C167.72 27.02 167.46 28.66 166.94 30.09C166.42 31.53 165.64 32.7 164.62 33.6C163.59 34.51 162.35 35.05 160.9 35.24V32.16V32.17Z" fill="#E5E1D6"></path>
<path d="M184.47 34.7799C184.16 34.4699 184.01 34.0799 184.01 33.5899V17.2899C184.01 16.8199 184.15 16.4299 184.42 16.1099C184.69 15.7899 185.1 15.6299 185.64 15.6299C186.18 15.6299 186.62 15.8699 186.96 16.3599L195.22 28.1799V17.2899C195.22 16.8099 195.37 16.4099 195.68 16.0999C195.99 15.7899 196.38 15.6399 196.87 15.6399C197.36 15.6399 197.75 15.7899 198.06 16.0999C198.37 16.4099 198.52 16.8099 198.52 17.2899V33.5899C198.52 34.0599 198.38 34.4499 198.11 34.7699C197.84 35.0899 197.43 35.2499 196.89 35.2499C196.35 35.2499 195.91 35.0099 195.57 34.5199L187.31 22.7599V33.5999C187.31 34.0899 187.16 34.4799 186.85 34.7899C186.54 35.0999 186.15 35.2499 185.66 35.2499C185.17 35.2499 184.78 35.0999 184.47 34.7899V34.7799Z" fill="#E5E1D6"></path>
<path d="M216.76 35.2502C216.22 35.2502 215.79 35.1002 215.49 34.7902C215.18 34.4802 215.03 34.0602 215.03 33.5202V17.3902C215.03 16.8502 215.18 16.4202 215.49 16.1202C215.8 15.8102 216.22 15.6602 216.76 15.6602H226.7C227.19 15.6602 227.57 15.7902 227.85 16.0502C228.13 16.3102 228.27 16.6802 228.27 17.1702C228.27 17.6602 228.13 18.0302 227.85 18.2902C227.57 18.5502 227.19 18.6802 226.7 18.6802H218.33V23.6602H224.43C224.92 23.6602 225.3 23.7902 225.58 24.0502C225.86 24.3102 226 24.6802 226 25.1702C226 25.6602 225.86 26.0302 225.58 26.2902C225.3 26.5502 224.92 26.6802 224.43 26.6802H218.33V32.2202H227.23C227.72 32.2202 228.1 32.3502 228.38 32.6102C228.66 32.8702 228.8 33.2402 228.8 33.7302C228.8 34.2202 228.66 34.5902 228.38 34.8502C228.1 35.1102 227.72 35.2402 227.23 35.2402H216.76V35.2502Z" fill="#E5E1D6"></path>
<path d="M91.16 63.6197C90.85 63.3097 90.7 62.9197 90.7 62.4297V46.1297C90.7 45.6597 90.84 45.2697 91.11 44.9497C91.38 44.6297 91.79 44.4697 92.33 44.4697C92.68 44.4697 92.97 44.5397 93.18 44.6897C93.39 44.8397 93.6 45.0897 93.81 45.4497L98.18 53.0097L102.55 45.4497C102.76 45.0997 102.97 44.8397 103.18 44.6897C103.39 44.5397 103.68 44.4697 104.03 44.4697C104.57 44.4697 104.98 44.6297 105.25 44.9497C105.52 45.2697 105.66 45.6597 105.66 46.1297V62.4297C105.66 62.9197 105.51 63.3097 105.2 63.6197C104.89 63.9297 104.5 64.0797 104.01 64.0797C103.52 64.0797 103.13 63.9297 102.82 63.6197C102.51 63.3097 102.36 62.9197 102.36 62.4297V51.9597L99.5 56.7797C99.2 57.3197 98.76 57.5897 98.18 57.5897C97.6 57.5897 97.16 57.3197 96.86 56.7797L94 51.9597V62.4297C94 62.9197 93.85 63.3097 93.54 63.6197C93.23 63.9297 92.84 64.0797 92.35 64.0797C91.86 64.0797 91.47 63.9297 91.16 63.6197Z" fill="#E5E1D6"></path>
<path d="M127.35 64.2803C125.17 64.0003 123.48 62.9503 122.3 61.1303C121.11 59.3103 120.52 57.0303 120.52 54.2803C120.52 52.5103 120.78 50.9003 121.3 49.4503C121.82 48.0003 122.6 46.8303 123.63 45.9203C124.66 45.0203 125.9 44.4703 127.35 44.2803V47.3603C126.21 47.6803 125.35 48.4603 124.76 49.7003C124.17 50.9403 123.88 52.4703 123.88 54.2803C123.88 56.0903 124.17 57.6203 124.76 58.8603C125.35 60.1003 126.21 60.8803 127.35 61.2003V64.2803ZM129.54 61.2003C130.68 60.8803 131.54 60.1003 132.13 58.8603C132.72 57.6203 133.01 56.0903 133.01 54.2803C133.01 52.4703 132.72 50.9403 132.13 49.7003C131.54 48.4603 130.68 47.6803 129.54 47.3603V44.2803C131 44.4703 132.24 45.0103 133.26 45.9203C134.29 46.8303 135.06 48.0003 135.58 49.4503C136.1 50.9003 136.36 52.5103 136.36 54.2803C136.36 56.0503 136.1 57.6903 135.58 59.1203C135.06 60.5603 134.28 61.7303 133.26 62.6303C132.23 63.5403 130.99 64.0803 129.54 64.2703V61.1903V61.2003Z" fill="#E5E1D6"></path>
<path d="M152.92 63.6197C152.61 63.3097 152.46 62.9197 152.46 62.4297V46.1297C152.46 45.6597 152.6 45.2697 152.87 44.9497C153.14 44.6297 153.55 44.4697 154.09 44.4697C154.63 44.4697 155.07 44.7097 155.41 45.1997L163.67 57.0197V46.1297C163.67 45.6497 163.82 45.2497 164.13 44.9397C164.44 44.6297 164.83 44.4797 165.32 44.4797C165.81 44.4797 166.2 44.6297 166.51 44.9397C166.82 45.2497 166.97 45.6497 166.97 46.1297V62.4297C166.97 62.8997 166.83 63.2897 166.56 63.6097C166.29 63.9297 165.88 64.0897 165.34 64.0897C164.8 64.0897 164.36 63.8497 164.02 63.3597L155.76 51.5997V62.4397C155.76 62.9297 155.61 63.3197 155.3 63.6297C154.99 63.9397 154.6 64.0897 154.11 64.0897C153.62 64.0897 153.23 63.9397 152.92 63.6297V63.6197Z" fill="#E5E1D6"></path>
<path d="M190.07 63.6202C189.76 63.3102 189.61 62.9202 189.61 62.4302V47.5102H184.85C184.36 47.5102 183.98 47.3802 183.7 47.1202C183.42 46.8602 183.28 46.4902 183.28 46.0002C183.28 45.5102 183.42 45.1402 183.7 44.8802C183.98 44.6202 184.36 44.4902 184.85 44.4902H197.67C198.16 44.4902 198.54 44.6202 198.82 44.8802C199.1 45.1402 199.24 45.5102 199.24 46.0002C199.24 46.4902 199.1 46.8602 198.82 47.1202C198.54 47.3802 198.16 47.5102 197.67 47.5102H192.91V62.4302C192.91 62.9202 192.76 63.3102 192.45 63.6202C192.14 63.9302 191.74 64.0802 191.26 64.0802C190.78 64.0802 190.38 63.9302 190.07 63.6202Z" fill="#E5E1D6"></path>
<path d="M216.98 64.09C216.49 64.09 216.11 63.96 215.83 63.7C215.55 63.44 215.41 63.07 215.41 62.58C215.41 62.09 215.55 61.72 215.83 61.46C216.11 61.2 216.49 61.07 216.98 61.07H220.26V47.52H216.98C216.49 47.52 216.11 47.39 215.83 47.13C215.55 46.87 215.41 46.5 215.41 46.01C215.41 45.52 215.55 45.15 215.83 44.89C216.11 44.63 216.49 44.5 216.98 44.5H226.84C227.32 44.5 227.71 44.63 227.99 44.89C228.27 45.15 228.41 45.52 228.41 46.01C228.41 46.5 228.27 46.87 227.99 47.13C227.71 47.39 227.33 47.52 226.84 47.52H223.56V61.07H226.84C227.32 61.07 227.71 61.2 227.99 61.46C228.27 61.72 228.41 62.09 228.41 62.58C228.41 63.07 228.27 63.44 227.99 63.7C227.71 63.96 227.33 64.09 226.84 64.09H216.98Z" fill="#E5E1D6"></path>
<path d="M39.11 32.4805L41.43 37.0605C41.52 37.2505 41.68 37.4005 41.86 37.4905L46.44 39.8105L41.86 42.1305C41.67 42.2205 41.52 42.3805 41.43 42.5605L39.11 47.1405L36.79 42.5605C36.7 42.3705 36.54 42.2205 36.36 42.1305L31.78 39.8105L36.36 37.4905C36.55 37.4005 36.7 37.2405 36.79 37.0605L39.11 32.4805Z" fill="#E5E1D6"></path>
<path d="M38.93 28.0298L42.3 18.8198C43.11 16.6098 41.47 14.2598 39.11 14.2598C36.8001 14.2598 35.1701 16.5198 35.8801 18.7098L38.93 28.0298Z" fill="#E5E1D6"></path>
<path d="M50.47 39.63L59.68 43C61.89 43.81 64.24 42.17 64.24 39.81C64.24 37.5 61.98 35.87 59.79 36.58L50.47 39.63Z" fill="#E5E1D6"></path>
<path d="M27.9099 39.9896L18.6999 36.6196C16.4899 35.8096 14.1399 37.4496 14.1399 39.8096C14.1399 42.1196 16.3999 43.7496 18.5899 43.0396L27.9099 39.9896Z" fill="#E5E1D6"></path>
<path d="M48.5999 29.88C50.2236 29.88 51.5399 28.5637 51.5399 26.94C51.5399 25.3163 50.2236 24 48.5999 24C46.9762 24 45.6599 25.3163 45.6599 26.94C45.6599 28.5637 46.9762 29.88 48.5999 29.88Z" fill="#E5E1D6"></path>
<path d="M61.3001 20.13C62.9238 20.13 64.2401 18.8137 64.2401 17.19C64.2401 15.5663 62.9238 14.25 61.3001 14.25C59.6764 14.25 58.3601 15.5663 58.3601 17.19C58.3601 18.8137 59.6764 20.13 61.3001 20.13Z" fill="#E5E1D6"></path>
<path d="M29.3599 29.88C30.9836 29.88 32.2999 28.5637 32.2999 26.94C32.2999 25.3163 30.9836 24 29.3599 24C27.7362 24 26.4199 25.3163 26.4199 26.94C26.4199 28.5637 27.7362 29.88 29.3599 29.88Z" fill="#E5E1D6"></path>
<path d="M17.0799 20.13C18.7036 20.13 20.0199 18.8137 20.0199 17.19C20.0199 15.5663 18.7036 14.25 17.0799 14.25C15.4562 14.25 14.1399 15.5663 14.1399 17.19C14.1399 18.8137 15.4562 20.13 17.0799 20.13Z" fill="#E5E1D6"></path>
<path d="M39.2899 51.5098L35.9199 60.7198C35.1099 62.9298 36.7499 65.2798 39.1099 65.2798C41.4199 65.2798 43.0499 63.0198 42.3399 60.8298L39.2899 51.5098Z" fill="#E5E1D6"></path>
<path d="M29.7801 55.5402C31.4038 55.5402 32.7201 54.2239 32.7201 52.6002C32.7201 50.9764 31.4038 49.6602 29.7801 49.6602C28.1564 49.6602 26.8401 50.9764 26.8401 52.6002C26.8401 54.2239 28.1564 55.5402 29.7801 55.5402Z" fill="#E5E1D6"></path>
<path d="M17.0799 65.2804C18.7036 65.2804 20.0199 63.9641 20.0199 62.3404C20.0199 60.7167 18.7036 59.4004 17.0799 59.4004C15.4562 59.4004 14.1399 60.7167 14.1399 62.3404C14.1399 63.9641 15.4562 65.2804 17.0799 65.2804Z" fill="#E5E1D6"></path>
<path d="M49.0201 55.5402C50.6438 55.5402 51.9601 54.2239 51.9601 52.6002C51.9601 50.9764 50.6438 49.6602 49.0201 49.6602C47.3964 49.6602 46.0801 50.9764 46.0801 52.6002C46.0801 54.2239 47.3964 55.5402 49.0201 55.5402Z" fill="#E5E1D6"></path>
<path d="M61.3001 65.2804C62.9238 65.2804 64.2401 63.9641 64.2401 62.3404C64.2401 60.7167 62.9238 59.4004 61.3001 59.4004C59.6764 59.4004 58.3601 60.7167 58.3601 62.3404C58.3601 63.9641 59.6764 65.2804 61.3001 65.2804Z" fill="#E5E1D6"></path>
<path d="M243.02 1.5H78.04V78.04H243.02V1.5Z" stroke="#E5E1D6" stroke-width="3" stroke-miterlimit="10"></path>
<path d="M78.04 1.5H1.5V78.04H78.04V1.5Z" stroke="#E5E1D6" stroke-width="3" stroke-miterlimit="10"></path>
</g>
<defs>
<clipPath id="clip0_4023_16641">
<rect width="244.52" height="79.54" fill="white"></rect>
</clipPath>
</defs>
</svg>