<svg width="209" height="144" viewBox="0 0 209 144" fill="none" xmlns="http://www.w3.org/2000/svg">
<g clip-path="url(#clip0_41_229)">
<path d="M32.0647 118.881L28.9718 120.564C28.7041 120.715 28.4811 120.942 28.3472 121.23L26.8305 124.459L25.18 121.306C25.0313 121.033 24.8082 120.806 24.5257 120.67L21.3584 119.124L24.4513 117.441C24.719 117.289 24.942 117.062 25.0759 116.774L26.5926 113.545L28.2432 116.698C28.3919 116.971 28.6149 117.198 28.8974 117.335L32.0647 118.881Z" fill="#E5E1D6"></path>
<path d="M19.0678 118.757L12.2871 116.408C10.6514 115.847 8.95625 117.105 9.00086 118.864C9.04547 120.576 10.7109 121.759 12.302 121.198L19.0678 118.773V118.757Z" fill="#E5E1D6"></path>
<path d="M34.2535 118.854L41.0342 121.203C42.6699 121.764 44.365 120.506 44.3204 118.748C44.2758 117.035 42.6104 115.853 41.0193 116.414L34.2535 118.839L34.2535 118.854Z" fill="#E5E1D6"></path>
<path d="M27.0193 126.651L24.7145 133.563C24.1643 135.231 25.3985 136.944 27.1234 136.898C28.8037 136.853 29.9635 135.155 29.4133 133.533L27.0342 126.636L27.0193 126.651Z" fill="#E5E1D6"></path>
<path d="M26.5623 111.258L28.8671 104.346C29.4322 102.679 28.198 100.951 26.4731 100.996C24.7928 101.041 23.6329 102.739 24.1831 104.361L26.5623 111.258Z" fill="#E5E1D6"></path>
</g>
<g clip-path="url(#clip1_41_229)">
<path d="M32.0647 23.881L28.9718 25.5635C28.7041 25.7151 28.4811 25.9425 28.3472 26.2305L26.8305 29.4591L25.18 26.3063C25.0313 26.0334 24.8082 25.806 24.5257 25.6696L21.3584 24.1235L24.4513 22.441C24.719 22.2894 24.942 22.062 25.0759 21.774L26.5926 18.5454L28.2432 21.6983C28.3919 21.9711 28.6149 22.1985 28.8974 22.3349L32.0647 23.881Z" fill="#E5E1D6"></path>
<path d="M19.0678 23.7574L12.2871 21.4079C10.6514 20.8471 8.95625 22.1052 9.00086 23.8635C9.04547 25.5764 10.7109 26.7587 12.302 26.1978L19.0678 23.7726V23.7574Z" fill="#E5E1D6"></path>
<path d="M34.2535 23.8539L41.0342 26.2034C42.6699 26.7642 44.365 25.5061 44.3204 23.7478C44.2758 22.035 42.6104 20.8527 41.0193 21.4135L34.2535 23.8388L34.2535 23.8539Z" fill="#E5E1D6"></path>
<path d="M27.0193 31.6514L24.7145 38.5634C24.1643 40.2308 25.3985 41.9436 27.1234 41.8981C28.8037 41.8527 29.9635 40.155 29.4133 38.5331L27.0342 31.6362L27.0193 31.6514Z" fill="#E5E1D6"></path>
<path d="M26.5623 16.2579L28.8671 9.34589C29.4322 7.67852 28.198 5.95052 26.4731 5.996C24.7928 6.04147 23.6329 7.73915 24.1831 9.36105L26.5623 16.2579Z" fill="#E5E1D6"></path>
</g>
<g clip-path="url(#clip2_41_229)">
<path d="M186.065 24.881L182.972 26.5635C182.704 26.7151 182.481 26.9425 182.347 27.2305L180.831 30.4591L179.18 27.3063C179.031 27.0334 178.808 26.806 178.526 26.6696L175.358 25.1235L178.451 23.441C178.719 23.2894 178.942 23.062 179.076 22.774L180.593 19.5454L182.243 22.6983C182.392 22.9711 182.615 23.1985 182.897 23.3349L186.065 24.881Z" fill="#E5E1D6"></path>
<path d="M173.068 24.7574L166.287 22.4079C164.651 21.8471 162.956 23.1052 163.001 24.8635C163.045 26.5764 164.711 27.7587 166.302 27.1978L173.068 24.7726V24.7574Z" fill="#E5E1D6"></path>
<path d="M188.254 24.8539L195.034 27.2034C196.67 27.7642 198.365 26.5061 198.32 24.7478C198.276 23.035 196.61 21.8527 195.019 22.4135L188.254 24.8388L188.254 24.8539Z" fill="#E5E1D6"></path>
<path d="M181.019 32.6514L178.714 39.5634C178.164 41.2308 179.398 42.9436 181.123 42.8981C182.804 42.8527 183.964 41.155 183.413 39.5331L181.034 32.6362L181.019 32.6514Z" fill="#E5E1D6"></path>
<path d="M180.562 17.2579L182.867 10.3459C183.432 8.67852 182.198 6.95052 180.473 6.996C178.793 7.04147 177.633 8.73915 178.183 10.361L180.562 17.2579Z" fill="#E5E1D6"></path>
</g>
<g clip-path="url(#clip3_41_229)">
<path d="M186.065 117.881L182.972 119.564C182.704 119.715 182.481 119.942 182.347 120.23L180.831 123.459L179.18 120.306C179.031 120.033 178.808 119.806 178.526 119.67L175.358 118.124L178.451 116.441C178.719 116.289 178.942 116.062 179.076 115.774L180.593 112.545L182.243 115.698C182.392 115.971 182.615 116.198 182.897 116.335L186.065 117.881Z" fill="#E5E1D6"></path>
<path d="M173.068 117.757L166.287 115.408C164.651 114.847 162.956 116.105 163.001 117.864C163.045 119.576 164.711 120.759 166.302 120.198L173.068 117.773V117.757Z" fill="#E5E1D6"></path>
<path d="M188.254 117.854L195.034 120.203C196.67 120.764 198.365 119.506 198.32 117.748C198.276 116.035 196.61 114.853 195.019 115.414L188.254 117.839L188.254 117.854Z" fill="#E5E1D6"></path>
<path d="M181.019 125.651L178.714 132.563C178.164 134.231 179.398 135.944 181.123 135.898C182.804 135.853 183.964 134.155 183.413 132.533L181.034 125.636L181.019 125.651Z" fill="#E5E1D6"></path>
<path d="M180.562 110.258L182.867 103.346C183.432 101.679 182.198 99.9505 180.473 99.996C178.793 100.041 177.633 101.739 178.183 103.361L180.562 110.258Z" fill="#E5E1D6"></path>
</g>
<path d="M127.944 33.9999C127.402 33.9999 126.973 33.8506 126.656 33.5519C126.357 33.2346 126.208 32.8052 126.208 32.2639V16.1359C126.208 15.5946 126.357 15.1746 126.656 14.8759C126.973 14.5586 127.402 14.3999 127.944 14.3999H137.884C138.369 14.3999 138.752 14.5306 139.032 14.7919C139.312 15.0532 139.452 15.4266 139.452 15.9119C139.452 16.3972 139.312 16.7706 139.032 17.0319C138.752 17.2932 138.369 17.4239 137.884 17.4239H129.512V22.4079H135.616C136.101 22.4079 136.484 22.5386 136.764 22.7999C137.044 23.0612 137.184 23.4346 137.184 23.9199C137.184 24.4052 137.044 24.7786 136.764 25.0399C136.484 25.3012 136.101 25.4319 135.616 25.4319H129.512V30.9759H138.416C138.901 30.9759 139.284 31.1066 139.564 31.3679C139.844 31.6292 139.984 32.0026 139.984 32.4879C139.984 32.9732 139.844 33.3466 139.564 33.6079C139.284 33.8692 138.901 33.9999 138.416 33.9999H127.944Z" fill="#E5E1D6"></path>
<path d="M107.836 33.9999C107.351 33.9999 106.949 33.8506 106.632 33.5519C106.333 33.2346 106.184 32.8332 106.184 32.3479V16.0519C106.184 15.5852 106.315 15.1932 106.576 14.8759C106.856 14.5586 107.267 14.3999 107.808 14.3999C108.163 14.3999 108.443 14.4746 108.648 14.6239C108.872 14.7732 109.087 15.0252 109.292 15.3799L113.66 22.9399L118.028 15.3799C118.233 15.0252 118.439 14.7732 118.644 14.6239C118.868 14.4746 119.157 14.3999 119.512 14.3999C120.053 14.3999 120.455 14.5586 120.716 14.8759C120.996 15.1932 121.136 15.5852 121.136 16.0519V32.3479C121.136 32.8332 120.977 33.2346 120.66 33.5519C120.361 33.8506 119.969 33.9999 119.484 33.9999C118.999 33.9999 118.597 33.8506 118.28 33.5519C117.981 33.2346 117.832 32.8332 117.832 32.3479V21.8759L114.976 26.6919C114.677 27.2332 114.239 27.5039 113.66 27.5039C113.081 27.5039 112.643 27.2332 112.344 26.6919L109.488 21.8759V32.3479C109.488 32.8332 109.329 33.2346 109.012 33.5519C108.713 33.8506 108.321 33.9999 107.836 33.9999Z" fill="#E5E1D6"></path>
<path d="M93.2446 34.1961C91.0606 33.9161 89.3713 32.8708 88.1766 31.0601C87.0006 29.2308 86.4126 26.9441 86.4126 24.2001C86.4126 22.4268 86.6739 20.8214 87.1966 19.3841C87.7193 17.9281 88.4939 16.7521 89.5206 15.8561C90.5473 14.9414 91.7886 14.3908 93.2446 14.2041V17.2841C92.1059 17.6014 91.2379 18.3854 90.6406 19.6361C90.0619 20.8681 89.7726 22.3894 89.7726 24.2001C89.7726 26.0108 90.0619 27.5414 90.6406 28.7921C91.2379 30.0241 92.1059 30.7988 93.2446 31.1161V34.1961ZM95.4286 31.1161C96.5673 30.7988 97.4259 30.0241 98.0046 28.7921C98.6019 27.5414 98.9006 26.0108 98.9006 24.2001C98.9006 22.3894 98.6019 20.8681 98.0046 19.6361C97.4259 18.3854 96.5673 17.6014 95.4286 17.2841V14.2041C96.8846 14.3908 98.1259 14.9414 99.1526 15.8561C100.179 16.7521 100.954 17.9281 101.477 19.3841C101.999 20.8214 102.261 22.4268 102.261 24.2001C102.261 25.9921 101.999 27.6068 101.477 29.0441C100.954 30.4814 100.179 31.6574 99.1526 32.5721C98.1259 33.4681 96.8846 34.0094 95.4286 34.1961V31.1161Z" fill="#E5E1D6"></path>
<path d="M75.8816 34.2801C74.2203 34.2801 72.7549 33.8975 71.4856 33.1321C70.2163 32.3481 69.2269 31.2001 68.5176 29.6881C67.8083 28.1575 67.4536 26.3281 67.4536 24.2001C67.4536 22.0721 67.8083 20.2521 68.5176 18.7401C69.2269 17.2095 70.2163 16.0615 71.4856 15.2961C72.7549 14.5121 74.2203 14.1201 75.8816 14.1201C77.2069 14.1201 78.3643 14.3068 79.3536 14.6801C80.3616 15.0348 81.2856 15.6321 82.1256 16.4721C82.5549 16.9014 82.7696 17.3868 82.7696 17.9281C82.7696 18.3761 82.6203 18.7495 82.3216 19.0481C82.0416 19.3281 81.6963 19.4681 81.2856 19.4681C80.8563 19.4681 80.4363 19.2628 80.0256 18.8521C79.4096 18.2361 78.7656 17.7975 78.0936 17.5361C77.4216 17.2748 76.6843 17.1441 75.8816 17.1441C74.7429 17.1441 73.7909 17.4801 73.0256 18.1521C72.2789 18.8241 71.7189 19.6921 71.3456 20.7561C70.9909 21.8201 70.8136 22.9681 70.8136 24.2001C70.8136 25.4321 70.9909 26.5801 71.3456 27.6441C71.7189 28.7081 72.2789 29.5761 73.0256 30.2481C73.7909 30.9201 74.7429 31.2561 75.8816 31.2561C76.6843 31.2561 77.4216 31.1255 78.0936 30.8641C78.7656 30.6028 79.4096 30.1641 80.0256 29.5481C80.4363 29.1375 80.8563 28.9321 81.2856 28.9321C81.6963 28.9321 82.0416 29.0815 82.3216 29.3801C82.6203 29.6601 82.7696 30.0241 82.7696 30.4721C82.7696 31.0135 82.5549 31.4988 82.1256 31.9281C81.2856 32.7681 80.3616 33.3748 79.3536 33.7481C78.3643 34.1028 77.2069 34.2801 75.8816 34.2801Z" fill="#E5E1D6"></path>
<path d="M187.159 80.9999C186.823 80.9999 186.515 80.8972 186.235 80.6919C185.973 80.4679 185.777 80.1599 185.647 79.7679L179.375 62.9399L179.459 62.7159C179.627 62.2679 179.832 61.9412 180.075 61.7359C180.317 61.5119 180.625 61.3999 180.999 61.3999C181.372 61.3999 181.68 61.5119 181.923 61.7359C182.165 61.9412 182.371 62.2679 182.539 62.7159L188.671 78.5639C188.764 78.8439 188.811 79.0959 188.811 79.3199C188.811 79.8239 188.661 80.2346 188.363 80.5519C188.064 80.8506 187.663 80.9999 187.159 80.9999ZM174.839 80.9999C174.353 80.9999 173.952 80.8506 173.635 80.5519C173.336 80.2346 173.187 79.8239 173.187 79.3199C173.187 79.0959 173.233 78.8439 173.327 78.5639L178.087 66.1319L179.739 70.6399L179.011 72.6279H180.467L181.615 75.6519H177.891L176.351 79.7679C176.22 80.1599 176.015 80.4679 175.735 80.6919C175.473 80.8972 175.175 80.9999 174.839 80.9999Z" fill="#E5E1D6"></path>
<path d="M139.143 124C138.807 124 138.499 123.897 138.219 123.692C137.958 123.468 137.762 123.16 137.631 122.768L131.359 105.94L131.443 105.716C131.611 105.268 131.817 104.941 132.059 104.736C132.302 104.512 132.61 104.4 132.983 104.4C133.357 104.4 133.665 104.512 133.907 104.736C134.15 104.941 134.355 105.268 134.523 105.716L140.655 121.564C140.749 121.844 140.795 122.096 140.795 122.32C140.795 122.824 140.646 123.235 140.347 123.552C140.049 123.851 139.647 124 139.143 124ZM126.823 124C126.338 124 125.937 123.851 125.619 123.552C125.321 123.235 125.171 122.824 125.171 122.32C125.171 122.096 125.218 121.844 125.311 121.564L130.071 109.132L131.723 113.64L130.995 115.628H132.451L133.599 118.652H129.875L128.335 122.768C128.205 123.16 127.999 123.468 127.719 123.692C127.458 123.897 127.159 124 126.823 124Z" fill="#E5E1D6"></path>
<path d="M113.772 124.28C111.924 124.28 110.393 124.009 109.18 123.468C107.985 122.908 106.996 122.059 106.212 120.92C105.932 120.491 105.792 120.089 105.792 119.716C105.792 119.231 105.941 118.829 106.24 118.512C106.557 118.195 106.977 118.036 107.5 118.036C108.097 118.036 108.564 118.269 108.9 118.736C109.497 119.613 110.16 120.257 110.888 120.668C111.635 121.06 112.596 121.256 113.772 121.256C114.967 121.256 115.909 121.013 116.6 120.528C117.291 120.024 117.636 119.371 117.636 118.568C117.636 117.877 117.412 117.336 116.964 116.944C116.535 116.533 116.021 116.235 115.424 116.048C114.827 115.843 113.903 115.591 112.652 115.292C111.383 114.993 110.328 114.667 109.488 114.312C108.648 113.957 107.939 113.416 107.36 112.688C106.8 111.96 106.52 110.98 106.52 109.748C106.52 108.516 106.837 107.48 107.472 106.64C108.125 105.8 108.975 105.175 110.02 104.764C111.084 104.335 112.232 104.12 113.464 104.12C115.013 104.12 116.311 104.372 117.356 104.876C118.401 105.361 119.232 106.117 119.848 107.144C120.072 107.536 120.184 107.9 120.184 108.236C120.184 108.777 120.035 109.197 119.736 109.496C119.437 109.776 119.036 109.916 118.532 109.916C118.271 109.916 118.009 109.841 117.748 109.692C117.505 109.543 117.3 109.328 117.132 109.048C116.721 108.376 116.217 107.891 115.62 107.592C115.023 107.293 114.304 107.144 113.464 107.144C112.344 107.144 111.457 107.359 110.804 107.788C110.151 108.217 109.824 108.852 109.824 109.692C109.824 110.215 110.011 110.653 110.384 111.008C110.776 111.344 111.261 111.615 111.84 111.82C112.437 112.007 113.24 112.231 114.248 112.492C115.648 112.865 116.796 113.239 117.692 113.612C118.588 113.985 119.353 114.555 119.988 115.32C120.623 116.067 120.94 117.075 120.94 118.344C120.94 119.613 120.613 120.696 119.96 121.592C119.307 122.488 118.439 123.16 117.356 123.608C116.273 124.056 115.079 124.28 113.772 124.28Z" fill="#E5E1D6"></path>
<path d="M100.497 124C100.161 124 99.8529 123.897 99.5729 123.692C99.3116 123.468 99.1156 123.16 98.9849 122.768L92.7129 105.94L92.7969 105.716C92.9649 105.268 93.1702 104.941 93.4129 104.736C93.6556 104.512 93.9636 104.4 94.3369 104.4C94.7102 104.4 95.0182 104.512 95.2609 104.736C95.5036 104.941 95.7089 105.268 95.8769 105.716L102.009 121.564C102.102 121.844 102.149 122.096 102.149 122.32C102.149 122.824 102 123.235 101.701 123.552C101.402 123.851 101.001 124 100.497 124ZM88.1769 124C87.6916 124 87.2902 123.851 86.9729 123.552C86.6742 123.235 86.5249 122.824 86.5249 122.32C86.5249 122.096 86.5716 121.844 86.6649 121.564L91.4249 109.132L93.0769 113.64L92.3489 115.628H93.8049L94.9529 118.652H91.2289L89.6889 122.768C89.5582 123.16 89.3529 123.468 89.0729 123.692C88.8116 123.897 88.5129 124 88.1769 124Z" fill="#E5E1D6"></path>
<path d="M75.8816 124.28C74.2203 124.28 72.7549 123.897 71.4856 123.132C70.2163 122.348 69.2269 121.2 68.5176 119.688C67.8083 118.157 67.4536 116.328 67.4536 114.2C67.4536 112.072 67.8083 110.252 68.5176 108.74C69.2269 107.209 70.2163 106.061 71.4856 105.296C72.7549 104.512 74.2203 104.12 75.8816 104.12C77.2069 104.12 78.3643 104.307 79.3536 104.68C80.3616 105.035 81.2856 105.632 82.1256 106.472C82.5549 106.901 82.7696 107.387 82.7696 107.928C82.7696 108.376 82.6203 108.749 82.3216 109.048C82.0416 109.328 81.6963 109.468 81.2856 109.468C80.8563 109.468 80.4363 109.263 80.0256 108.852C79.4096 108.236 78.7656 107.797 78.0936 107.536C77.4216 107.275 76.6843 107.144 75.8816 107.144C74.7429 107.144 73.7909 107.48 73.0256 108.152C72.2789 108.824 71.7189 109.692 71.3456 110.756C70.9909 111.82 70.8136 112.968 70.8136 114.2C70.8136 115.432 70.9909 116.58 71.3456 117.644C71.7189 118.708 72.2789 119.576 73.0256 120.248C73.7909 120.92 74.7429 121.256 75.8816 121.256C76.6843 121.256 77.4216 121.125 78.0936 120.864C78.7656 120.603 79.4096 120.164 80.0256 119.548C80.4363 119.137 80.8563 118.932 81.2856 118.932C81.6963 118.932 82.0416 119.081 82.3216 119.38C82.6203 119.66 82.7696 120.024 82.7696 120.472C82.7696 121.013 82.5549 121.499 82.1256 121.928C81.2856 122.768 80.3616 123.375 79.3536 123.748C78.3643 124.103 77.2069 124.28 75.8816 124.28Z" fill="#E5E1D6"></path>
<path d="M209 0V144H0V0H209ZM3 141H206V3H3V141Z" fill="#E5E1D6"></path>
<path d="M209 93.5V96.5H0V93.5H209Z" fill="#E5E1D6"></path>
<path d="M53.5 48L50.5 48L50.5 -1.31134e-07L53.5 0L53.5 48Z" fill="#E5E1D6"></path>
<path d="M157.5 141L154.5 141L154.5 -1.31134e-07L157.5 0L157.5 141Z" fill="#E5E1D6"></path>
<path d="M209 46.5V49.5H0V46.5H209Z" fill="#E5E1D6"></path>
<defs>
<clipPath id="clip0_41_229">
<rect width="36" height="36" fill="white" transform="translate(9 101)"></rect>
</clipPath>
<clipPath id="clip1_41_229">
<rect width="36" height="36" fill="white" transform="translate(9 6)"></rect>
</clipPath>
<clipPath id="clip2_41_229">
<rect width="36" height="36" fill="white" transform="translate(163 7)"></rect>
</clipPath>
<clipPath id="clip3_41_229">
<rect width="36" height="36" fill="white" transform="translate(163 100)"></rect>
</clipPath>
</defs>
</svg>