<svg width="67" height="66" viewBox="0 0 67 66" fill="none" xmlns="http://www.w3.org/2000/svg">
<g clip-path="url(#clip0_4028_18530)">
<path d="M42.9257 32.7819L37.1694 35.8665C36.6712 36.1444 36.2561 36.5613 36.007 37.0893L33.1842 43.0084L30.1123 37.2282C29.8356 36.728 29.4205 36.3112 28.8947 36.0611L23 33.2265L28.7563 30.1419C29.2544 29.864 29.6696 29.4472 29.9186 28.9192L32.7414 23L35.8133 28.7802C36.09 29.2804 36.5052 29.6973 37.031 29.9474L42.9257 32.7819Z" fill="#E5E1D6"/>
<path d="M18.7373 32.5548L6.11767 28.2475C3.07348 27.2193 -0.0814198 29.5258 0.00160373 32.7494C0.0846273 35.8896 3.18417 38.0572 6.14535 37.0289L18.7373 32.5826V32.5548Z" fill="#E5E1D6"/>
<path d="M47 32.7324L59.6196 37.0397C62.6638 38.0679 65.8187 35.7614 65.7356 32.5378C65.6526 29.3976 62.5531 27.23 59.5919 28.2583L47 32.7046L47 32.7324Z" fill="#E5E1D6"/>
<path d="M33.536 47.0278L29.2464 59.6998C28.2225 62.7566 30.5195 65.8968 33.7297 65.8135C36.8569 65.7301 39.0156 62.6177 37.9916 59.6442L33.5637 47L33.536 47.0278Z" fill="#E5E1D6"/>
<path d="M32.6851 18.806L36.9746 6.13398C38.0263 3.07713 35.7293 -0.0908675 32.5191 -0.0074991C29.3918 0.0758693 27.2332 3.18829 28.2572 6.16177L32.6851 18.806Z" fill="#E5E1D6"/>
</g>
<defs>
<clipPath id="clip0_4028_18530">
<rect width="67" height="66" fill="white"/>
</clipPath>
</defs>
</svg>
