<svg width="123" height="170" viewBox="0 0 123 170" fill="none" xmlns="http://www.w3.org/2000/svg">
<path d="M56.7814 37.9999C56.2401 37.9999 55.8107 37.8506 55.4934 37.5519C55.1947 37.2346 55.0454 36.8052 55.0454 36.2639V20.1359C55.0454 19.5946 55.1947 19.1746 55.4934 18.8759C55.8107 18.5586 56.2401 18.3999 56.7814 18.3999H66.7214C67.2067 18.3999 67.5894 18.5306 67.8694 18.7919C68.1494 19.0532 68.2894 19.4266 68.2894 19.9119C68.2894 20.3972 68.1494 20.7706 67.8694 21.0319C67.5894 21.2932 67.2067 21.4239 66.7214 21.4239H58.3494V26.4079H64.4534C64.9387 26.4079 65.3214 26.5386 65.6014 26.7999C65.8814 27.0612 66.0214 27.4346 66.0214 27.9199C66.0214 28.4052 65.8814 28.7786 65.6014 29.0399C65.3214 29.3012 64.9387 29.4319 64.4534 29.4319H58.3494V34.9759H67.2534C67.7387 34.9759 68.1214 35.1066 68.4014 35.3679C68.6814 35.6292 68.8214 36.0026 68.8214 36.4879C68.8214 36.9732 68.6814 37.3466 68.4014 37.6079C68.1214 37.8692 67.7387 37.9999 67.2534 37.9999H56.7814Z" fill="#E5E1D6"></path>
<path d="M37.1784 37.9999C36.693 37.9999 36.2917 37.8506 35.9744 37.5519C35.6757 37.2346 35.5264 36.8332 35.5264 36.3479V20.0519C35.5264 19.5666 35.6757 19.1746 35.9744 18.8759C36.2917 18.5586 36.693 18.3999 37.1784 18.3999C37.6637 18.3999 38.0557 18.5586 38.3544 18.8759C38.6717 19.1746 38.8304 19.5666 38.8304 20.0519V26.4359H46.1664V20.0519C46.1664 19.5666 46.3157 19.1746 46.6144 18.8759C46.9317 18.5586 47.333 18.3999 47.8184 18.3999C48.3037 18.3999 48.6957 18.5586 48.9944 18.8759C49.3117 19.1746 49.4704 19.5666 49.4704 20.0519V36.3479C49.4704 36.8332 49.3117 37.2346 48.9944 37.5519C48.6957 37.8506 48.3037 37.9999 47.8184 37.9999C47.333 37.9999 46.9317 37.8506 46.6144 37.5519C46.3157 37.2346 46.1664 36.8332 46.1664 36.3479V29.4599H38.8304V36.3479C38.8304 36.8332 38.6717 37.2346 38.3544 37.5519C38.0557 37.8506 37.6637 37.9999 37.1784 37.9999Z" fill="#E5E1D6"></path>
<path d="M24.0432 38.2801C22.3819 38.2801 20.9166 37.8975 19.6472 37.1321C18.3779 36.3481 17.3886 35.2001 16.6792 33.6881C15.9699 32.1575 15.6152 30.3281 15.6152 28.2001C15.6152 26.0721 15.9699 24.2521 16.6792 22.7401C17.3886 21.2095 18.3779 20.0615 19.6472 19.2961C20.9166 18.5121 22.3819 18.1201 24.0432 18.1201C25.3686 18.1201 26.5259 18.3068 27.5152 18.6801C28.5232 19.0348 29.4472 19.6321 30.2872 20.4721C30.7166 20.9014 30.9312 21.3868 30.9312 21.9281C30.9312 22.3761 30.7819 22.7495 30.4832 23.0481C30.2032 23.3281 29.8579 23.4681 29.4472 23.4681C29.0179 23.4681 28.5979 23.2628 28.1872 22.8521C27.5712 22.2361 26.9272 21.7975 26.2552 21.5361C25.5832 21.2748 24.8459 21.1441 24.0432 21.1441C22.9046 21.1441 21.9526 21.4801 21.1872 22.1521C20.4406 22.8241 19.8806 23.6921 19.5072 24.7561C19.1526 25.8201 18.9752 26.9681 18.9752 28.2001C18.9752 29.4321 19.1526 30.5801 19.5072 31.6441C19.8806 32.7081 20.4406 33.5761 21.1872 34.2481C21.9526 34.9201 22.9046 35.2561 24.0432 35.2561C24.8459 35.2561 25.5832 35.1255 26.2552 34.8641C26.9272 34.6028 27.5712 34.1641 28.1872 33.5481C28.5979 33.1375 29.0179 32.9321 29.4472 32.9321C29.8579 32.9321 30.2032 33.0815 30.4832 33.3801C30.7819 33.6601 30.9312 34.0241 30.9312 34.4721C30.9312 35.0135 30.7166 35.4988 30.2872 35.9281C29.4472 36.7681 28.5232 37.3748 27.5152 37.7481C26.5259 38.1028 25.3686 38.2801 24.0432 38.2801Z" fill="#E5E1D6"></path>
<path d="M106.305 94.0002C105.969 94.0002 105.661 93.8976 105.381 93.6922C105.12 93.4682 104.924 93.1602 104.793 92.7682L98.521 75.9402L98.605 75.7162C98.773 75.2682 98.9783 74.9416 99.221 74.7362C99.4637 74.5122 99.7717 74.4002 100.145 74.4002C100.518 74.4002 100.826 74.5122 101.069 74.7362C101.312 74.9416 101.517 75.2682 101.685 75.7162L107.817 91.5642C107.91 91.8442 107.957 92.0962 107.957 92.3202C107.957 92.8242 107.808 93.2349 107.509 93.5522C107.21 93.8509 106.809 94.0002 106.305 94.0002ZM93.985 94.0002C93.4997 94.0002 93.0983 93.8509 92.781 93.5522C92.4823 93.2349 92.333 92.8242 92.333 92.3202C92.333 92.0962 92.3797 91.8442 92.473 91.5642L97.233 79.1322L98.885 83.6402L98.157 85.6282H99.613L100.761 88.6522H97.037L95.497 92.7682C95.3663 93.1602 95.161 93.4682 94.881 93.6922C94.6197 93.8976 94.321 94.0002 93.985 94.0002ZM100.985 72.3842C100.742 72.3842 100.528 72.3376 100.341 72.2442L96.449 70.2842C96.169 70.1349 95.9543 69.9482 95.805 69.7242C95.6743 69.5002 95.609 69.2576 95.609 68.9962C95.609 68.5482 95.749 68.1749 96.029 67.8762C96.3277 67.5776 96.673 67.4282 97.065 67.4282C97.3077 67.4282 97.5223 67.4749 97.709 67.5682L101.601 69.5282C101.881 69.6776 102.086 69.8642 102.217 70.0882C102.366 70.3122 102.441 70.5549 102.441 70.8162C102.441 71.2642 102.292 71.6376 101.993 71.9362C101.713 72.2349 101.377 72.3842 100.985 72.3842Z" fill="#E5E1D6"></path>
<path d="M80.8218 93.9999C80.3365 93.9999 79.9351 93.8506 79.6178 93.5519C79.3191 93.2346 79.1698 92.8332 79.1698 92.3479V77.4239H74.4098C73.9245 77.4239 73.5418 77.2932 73.2618 77.0319C72.9818 76.7706 72.8418 76.3972 72.8418 75.9119C72.8418 75.4266 72.9818 75.0532 73.2618 74.7919C73.5418 74.5306 73.9245 74.3999 74.4098 74.3999H87.2338C87.7191 74.3999 88.1018 74.5306 88.3818 74.7919C88.6618 75.0532 88.8018 75.4266 88.8018 75.9119C88.8018 76.3972 88.6618 76.7706 88.3818 77.0319C88.1018 77.2932 87.7191 77.4239 87.2338 77.4239H82.4738V92.3479C82.4738 92.8332 82.3151 93.2346 81.9978 93.5519C81.6991 93.8506 81.3071 93.9999 80.8218 93.9999Z" fill="#E5E1D6"></path>
<path d="M55.8986 93.9999C55.4132 93.9999 55.0119 93.8506 54.6946 93.5519C54.3959 93.2346 54.2466 92.8332 54.2466 92.3479V76.0519C54.2466 75.5852 54.3772 75.1932 54.6386 74.8759C54.9186 74.5586 55.3292 74.3999 55.8706 74.3999C56.4119 74.3999 56.8506 74.6426 57.1866 75.1279L65.4466 86.9439V76.0519C65.4466 75.5666 65.5959 75.1746 65.8946 74.8759C66.2119 74.5586 66.6132 74.3999 67.0986 74.3999C67.5839 74.3999 67.9759 74.5586 68.2746 74.8759C68.5919 75.1746 68.7506 75.5666 68.7506 76.0519V92.3479C68.7506 92.8146 68.6106 93.2066 68.3306 93.5239C68.0692 93.8412 67.6679 93.9999 67.1266 93.9999C66.5852 93.9999 66.1466 93.7572 65.8106 93.2719L57.5506 81.5119V92.3479C57.5506 92.8332 57.3919 93.2346 57.0746 93.5519C56.7759 93.8506 56.3839 93.9999 55.8986 93.9999Z" fill="#E5E1D6"></path>
<path d="M41.083 94.1961C38.899 93.9161 37.2096 92.8708 36.015 91.0601C34.839 89.2308 34.251 86.9441 34.251 84.2001C34.251 82.4268 34.5123 80.8214 35.035 79.3841C35.5576 77.9281 36.3323 76.7521 37.359 75.8561C38.3856 74.9414 39.627 74.3908 41.083 74.2041V77.2841C39.9443 77.6014 39.0763 78.3854 38.479 79.6361C37.9003 80.8681 37.611 82.3894 37.611 84.2001C37.611 86.0108 37.9003 87.5414 38.479 88.7921C39.0763 90.0241 39.9443 90.7988 41.083 91.1161V94.1961ZM43.267 91.1161C44.4056 90.7988 45.2643 90.0241 45.843 88.7921C46.4403 87.5414 46.739 86.0108 46.739 84.2001C46.739 82.3894 46.4403 80.8681 45.843 79.6361C45.2643 78.3854 44.4056 77.6014 43.267 77.2841V74.2041C44.723 74.3908 45.9643 74.9414 46.991 75.8561C48.0176 76.7521 48.7923 77.9281 49.315 79.3841C49.8376 80.8214 50.099 82.4268 50.099 84.2001C50.099 85.9921 49.8376 87.6068 49.315 89.0441C48.7923 90.4814 48.0176 91.6574 46.991 92.5721C45.9643 93.4681 44.723 94.0094 43.267 94.1961V91.1161Z" fill="#E5E1D6"></path>
<path d="M18.3156 93.9999C17.7743 93.9999 17.3449 93.8506 17.0276 93.5519C16.7289 93.2346 16.5796 92.8052 16.5796 92.2639V76.1359C16.5796 75.5946 16.7289 75.1746 17.0276 74.8759C17.3449 74.5586 17.7743 74.3999 18.3156 74.3999H19.8836V93.9999H18.3156ZM22.0676 93.9999V90.9759H24.1396C26.2863 90.9759 27.3596 90.0799 27.3596 88.2879C27.3596 86.4959 26.2863 85.5999 24.1396 85.5999H22.0676V82.5759H23.2156C25.2316 82.5759 26.2396 81.7172 26.2396 79.9999C26.2396 78.2826 25.2316 77.4239 23.2156 77.4239H22.0676V74.3999H23.7756C25.4929 74.3999 26.8836 74.8759 27.9476 75.8279C29.0116 76.7799 29.5436 78.1052 29.5436 79.8039C29.5436 80.6999 29.3756 81.4746 29.0396 82.1279C28.7223 82.7812 28.2929 83.3132 27.7516 83.7239C28.6103 84.1159 29.3103 84.6946 29.8516 85.4599C30.3929 86.2066 30.6636 87.1492 30.6636 88.2879C30.6636 90.0239 30.1223 91.4146 29.0396 92.4599C27.9569 93.4866 26.4729 93.9999 24.5876 93.9999H22.0676Z" fill="#E5E1D6"></path>
<path d="M94.9984 146.336C94.569 146.336 94.233 146.205 93.9904 145.944C93.7477 145.683 93.6077 145.347 93.5704 144.936L92.8424 135.192C92.8424 134.539 93.029 134.035 93.4024 133.68C93.7757 133.307 94.3077 133.12 94.9984 133.12C95.7077 133.12 96.2397 133.307 96.5944 133.68C96.9677 134.035 97.1544 134.539 97.1544 135.192L96.4264 144.936C96.389 145.347 96.249 145.683 96.0064 145.944C95.7637 146.205 95.4277 146.336 94.9984 146.336ZM94.9704 153C94.2424 153 93.6357 152.757 93.1504 152.272C92.665 151.787 92.4224 151.18 92.4224 150.452C92.4224 149.724 92.665 149.117 93.1504 148.632C93.6357 148.147 94.2424 147.904 94.9704 147.904C95.6984 147.904 96.305 148.147 96.7904 148.632C97.2757 149.117 97.5184 149.724 97.5184 150.452C97.5184 151.18 97.2757 151.787 96.7904 152.272C96.305 152.757 95.6984 153 94.9704 153Z" fill="#E5E1D6"></path>
<path d="M123 0V170H0V0H123ZM3 167H120V3H3V167Z" fill="#E5E1D6"></path>
<path d="M41.8522 153.28C40.5828 153.28 39.4348 153.028 38.4082 152.524C37.3815 152.001 36.5695 151.273 35.9722 150.34C35.3748 149.407 35.0762 148.333 35.0762 147.12C35.0762 146.635 35.2255 146.252 35.5242 145.972C35.8415 145.692 36.2148 145.552 36.6442 145.552C37.0362 145.552 37.3815 145.683 37.6802 145.944C37.9788 146.187 38.1468 146.541 38.1842 147.008C38.4082 149.285 39.6308 150.424 41.8522 150.424C42.9348 150.424 43.7842 150.144 44.4002 149.584C45.0348 149.005 45.3522 148.184 45.3522 147.12C45.3522 146.112 45.0348 145.337 44.4002 144.796C43.7842 144.236 42.9162 143.956 41.7962 143.956H41.0402C40.5922 143.956 40.2188 143.825 39.9202 143.564C39.6402 143.303 39.5002 142.957 39.5002 142.528C39.5002 142.117 39.6495 141.781 39.9482 141.52C40.2468 141.24 40.6108 141.1 41.0402 141.1H41.6282C42.6175 141.1 43.3735 140.867 43.8962 140.4C44.4188 139.933 44.6802 139.28 44.6802 138.44C44.6802 137.637 44.4282 137.031 43.9242 136.62C43.4202 136.191 42.7295 135.976 41.8522 135.976C40.9375 135.976 40.2002 136.209 39.6402 136.676C39.0802 137.124 38.7348 137.796 38.6042 138.692C38.5295 139.14 38.3522 139.485 38.0722 139.728C37.7922 139.952 37.4748 140.064 37.1202 140.064C36.6908 140.064 36.3082 139.924 35.9722 139.644C35.6548 139.345 35.4962 138.953 35.4962 138.468C35.4962 137.516 35.7575 136.629 36.2802 135.808C36.8028 134.987 37.5308 134.333 38.4642 133.848C39.4162 133.363 40.4895 133.12 41.6842 133.12C43.6628 133.12 45.1748 133.596 46.2202 134.548C47.2842 135.481 47.8162 136.741 47.8162 138.328C47.8162 139.336 47.5922 140.195 47.1442 140.904C46.7148 141.613 46.1735 142.08 45.5202 142.304C47.5362 143.088 48.5442 144.628 48.5442 146.924C48.5442 148.94 47.9282 150.508 46.6962 151.628C45.4828 152.729 43.8682 153.28 41.8522 153.28Z" fill="#E5E1D6"></path>
<path d="M26.8127 151.964C26.458 151.964 26.15 151.88 25.8887 151.712L16.6767 145.636C16.3034 145.394 16.1167 145.039 16.1167 144.572C16.1167 144.106 16.3034 143.751 16.6767 143.508L25.8887 137.432C26.15 137.264 26.458 137.18 26.8127 137.18C27.186 137.18 27.4847 137.311 27.7087 137.572C27.9514 137.815 28.0727 138.114 28.0727 138.468C28.0727 139.047 27.8394 139.495 27.3727 139.812L20.2327 144.572L27.3727 149.332C27.8394 149.65 28.0727 150.098 28.0727 150.676C28.0727 151.031 27.9514 151.339 27.7087 151.6C27.4847 151.843 27.186 151.964 26.8127 151.964Z" fill="#E5E1D6"></path>
<path d="M120 55.5L0 55.5V52.5L120 52.5V55.5Z" fill="#E5E1D6"></path>
<path d="M120 118.5L0 118.5V115.5L120 115.5V118.5Z" fill="#E5E1D6"></path>
<path d="M67.5 117L67.5 170L64.5 170L64.5 117L67.5 117Z" fill="#E5E1D6"></path>
</svg>