<svg width="49" height="50" viewBox="0 0 49 50" fill="none" xmlns="http://www.w3.org/2000/svg">
<path d="M23.4596 17.3381L25.8073 21.972C25.885 22.1356 26.0231 22.2648 26.1784 22.3423L30.822 24.6851L26.1784 27.0279C26.0144 27.1054 25.885 27.2432 25.8073 27.3982L23.4596 32.0321L21.1119 27.3982C21.0342 27.2346 20.8961 27.1054 20.7408 27.0279L16.0972 24.6851L20.7408 22.3423C20.9048 22.2648 21.0342 22.127 21.1119 21.972L23.4596 17.3381Z" fill="#E5E1D6"></path>
<path d="M23.2869 13.7982L26.6703 4.56494C27.4817 2.34276 25.8331 0 23.4681 0C21.1463 0 19.5064 2.25663 20.2314 4.46158L23.2955 13.8068L23.2869 13.7982Z" fill="#E5E1D6"></path>
<path d="M23.6406 35.5807L20.2571 44.8139C19.4458 47.0361 21.0944 49.3789 23.4593 49.3789C25.7811 49.3789 27.4211 47.1222 26.696 44.9173L23.632 35.5721L23.6406 35.5807Z" fill="#E5E1D6"></path>
<path d="M34.7235 24.5129L43.9761 27.8892C46.203 28.6989 48.5507 27.0537 48.5507 24.6938C48.5507 22.3768 46.2893 20.7404 44.0797 21.4639L34.7148 24.5215L34.7235 24.5129Z" fill="#E5E1D6"></path>
<path d="M13.8272 24.866L4.57455 21.4897C2.34769 20.68 0 22.3251 0 24.6851C0 27.0021 2.26138 28.6385 4.47097 27.915L13.8358 24.8574L13.8272 24.866Z" fill="#E5E1D6"></path>
<path d="M33.1438 37.5014C34.774 37.5014 36.0957 36.1826 36.0957 34.5557C36.0957 32.9289 34.774 31.61 33.1438 31.61C31.5135 31.61 30.1919 32.9289 30.1919 34.5557C30.1919 36.1826 31.5135 37.5014 33.1438 37.5014Z" fill="#E5E1D6"></path>
<path d="M13.8269 37.5014C15.4572 37.5014 16.7788 36.1826 16.7788 34.5557C16.7788 32.9289 15.4572 31.61 13.8269 31.61C12.1966 31.61 10.875 32.9289 10.875 34.5557C10.875 36.1826 12.1966 37.5014 13.8269 37.5014Z" fill="#E5E1D6"></path>
<path d="M33.1438 16.7438C34.774 16.7438 36.0957 15.425 36.0957 13.7982C36.0957 12.1713 34.774 10.8525 33.1438 10.8525C31.5135 10.8525 30.1919 12.1713 30.1919 13.7982C30.1919 15.425 31.5135 16.7438 33.1438 16.7438Z" fill="#E5E1D6"></path>
<path d="M13.8269 16.7438C15.4572 16.7438 16.7788 15.425 16.7788 13.7982C16.7788 12.1713 15.4572 10.8525 13.8269 10.8525C12.1966 10.8525 10.875 12.1713 10.875 13.7982C10.875 15.425 12.1966 16.7438 13.8269 16.7438Z" fill="#E5E1D6"></path>
</svg>