<svg width="153" height="63" viewBox="0 0 153 63" fill="none" xmlns="http://www.w3.org/2000/svg">
<path d="M153 0V63H0V0H153ZM3 60H150V3H3V60Z" fill="#DEA529"/>
<path d="M80 63L77 63L77 3L80 3L80 63Z" fill="#DEA529"/>
<path d="M153 0V63H0V0H153ZM3 60H150V3H3V60Z" fill="#DEA529"/>
<path d="M40.8822 43.36C37.1622 43.36 34.2222 41.17 33.7422 38.14H36.8922C37.5522 40.06 39.0822 40.9 40.8822 40.9C43.5822 40.9 45.0222 39.01 45.0222 36.4C45.0222 33.82 43.5822 32.05 41.0022 32.05C39.8022 32.05 38.7222 32.44 37.8522 33.13H34.6122L36.0222 22H47.2422V24.46H39.7722C38.8722 24.46 38.3622 24.94 38.2422 25.81L37.7922 29.35C37.7022 30.1 38.0922 30.37 38.8122 30.07C39.5922 29.77 40.4922 29.59 41.4522 29.59C45.4122 29.59 48.0222 32.47 48.0222 36.4C48.0222 40.57 45.0822 43.36 40.8822 43.36Z" fill="#DEA529"/>
<path d="M121.319 31.5811L117.835 33.3384C117.712 33.3965 117.615 33.4999 117.557 33.6162L115.796 37.0921L114.035 33.6162C113.977 33.4934 113.873 33.3965 113.757 33.3384L110.273 31.5811L113.757 29.8238C113.88 29.7656 113.977 29.6622 114.035 29.5459L115.796 26.0701L117.557 29.5459C117.615 29.6687 117.719 29.7656 117.835 29.8238L121.319 31.5811Z" fill="#DEA529"/>
<path d="M109.285 40.1157C110.507 40.1157 111.499 39.1264 111.499 37.9061C111.499 36.6858 110.507 35.6965 109.285 35.6965C108.062 35.6965 107.07 36.6858 107.07 37.9061C107.07 39.1264 108.062 40.1157 109.285 40.1157Z" fill="#DEA529"/>
<path d="M109.285 27.8726C110.507 27.8726 111.499 26.8834 111.499 25.6631C111.499 24.4428 110.507 23.4535 109.285 23.4535C108.062 23.4535 107.07 24.4428 107.07 25.6631C107.07 26.8834 108.062 27.8726 109.285 27.8726Z" fill="#DEA529"/>
<path d="M121.773 39.6763C122.996 39.6763 123.987 38.6871 123.987 37.4668C123.987 36.2465 122.996 35.2572 121.773 35.2572C120.55 35.2572 119.559 36.2465 119.559 37.4668C119.559 38.6871 120.55 39.6763 121.773 39.6763Z" fill="#DEA529"/>
<path d="M121.773 27.3492C122.996 27.3492 123.987 26.3599 123.987 25.1396C123.987 23.9193 122.996 22.9301 121.773 22.9301C120.55 22.9301 119.559 23.9193 119.559 25.1396C119.559 26.3599 120.55 27.3492 121.773 27.3492Z" fill="#DEA529"/>
<path d="M100.22 17.9425C101.443 17.9425 102.434 16.9532 102.434 15.7329C102.434 14.5126 101.443 13.5233 100.22 13.5233C98.9972 13.5233 98.0059 14.5126 98.0059 15.7329C98.0059 16.9532 98.9972 17.9425 100.22 17.9425Z" fill="#DEA529"/>
<path d="M130.779 17.4191C132.002 17.4191 132.993 16.4299 132.993 15.2096C132.993 13.9893 132.002 13 130.779 13C129.556 13 128.564 13.9893 128.564 15.2096C128.564 16.4299 129.556 17.4191 130.779 17.4191Z" fill="#DEA529"/>
<path d="M100.22 48.5921C101.443 48.5921 102.434 47.6029 102.434 46.3825C102.434 45.1622 101.443 44.173 100.22 44.173C98.9972 44.173 98.0059 45.1622 98.0059 46.3825C98.0059 47.6029 98.9972 48.5921 100.22 48.5921Z" fill="#DEA529"/>
<path d="M130.779 48.0753C132.002 48.0753 132.993 47.086 132.993 45.8657C132.993 44.6454 132.002 43.6561 130.779 43.6561C129.556 43.6561 128.564 44.6454 128.564 45.8657C128.564 47.086 129.556 48.0753 130.779 48.0753Z" fill="#DEA529"/>
<path d="M132.993 31.5035L126.052 28.9709C124.382 28.3636 122.621 29.5976 122.621 31.3678C122.621 33.1057 124.317 34.3333 125.975 33.7906L132.999 31.497L132.993 31.5035Z" fill="#DEA529"/>
<path d="M98.0064 31.2321L104.947 33.7647C106.617 34.3721 108.378 33.1381 108.378 31.3678C108.378 29.6299 106.682 28.4023 105.025 28.945L98 31.2386L98.0064 31.2321Z" fill="#DEA529"/>
<path d="M115.662 48.8312L118.2 41.9053C118.809 40.2384 117.572 38.4811 115.798 38.4811C114.057 38.4811 112.826 40.1738 113.37 41.8277L115.669 48.8376L115.662 48.8312Z" fill="#DEA529"/>
<path d="M115.935 14.2598L113.397 21.1857C112.789 22.8525 114.025 24.6098 115.799 24.6098C117.541 24.6098 118.771 22.9171 118.227 21.2632L115.929 14.2533L115.935 14.2598Z" fill="#DEA529"/>
</svg>
