<svg width="180" height="57" viewBox="0 0 180 57" fill="none" xmlns="http://www.w3.org/2000/svg">
<g clip-path="url(#clip0_120_503)">
<path d="M157.017 28.4174L154.869 29.5858C154.683 29.6911 154.528 29.849 154.435 30.049L153.382 32.2911L152.236 30.1016C152.133 29.9122 151.978 29.7543 151.782 29.6595L149.582 28.5858L151.73 27.4174C151.916 27.3122 152.071 27.1543 152.164 26.9543L153.217 24.7122L154.363 26.9016C154.466 27.0911 154.621 27.249 154.817 27.3437L157.017 28.4174Z" fill="#9D2D21"/>
<path d="M147.992 28.3313L143.283 26.6997C142.147 26.3102 140.97 27.1839 141.001 28.405C141.032 29.5944 142.188 30.4155 143.293 30.026L147.992 28.3418V28.3313Z" fill="#9D2D21"/>
<path d="M158.538 28.3987L163.247 30.0303C164.382 30.4198 165.56 29.5461 165.529 28.325C165.498 27.1355 164.341 26.3145 163.236 26.704L158.538 28.3882L158.538 28.3987Z" fill="#9D2D21"/>
<path d="M153.513 33.8135L151.912 38.6135C151.53 39.7714 152.387 40.9609 153.585 40.9293C154.752 40.8977 155.557 39.7188 155.175 38.5925L153.523 33.803L153.513 33.8135Z" fill="#9D2D21"/>
<path d="M153.195 23.1235L154.796 18.3235C155.188 17.1656 154.331 15.9656 153.133 15.9972C151.967 16.0288 151.161 17.2077 151.543 18.334L153.195 23.1235Z" fill="#9D2D21"/>
</g>
<path d="M130 0V57H0V0H130ZM3 54H127V3H3V54Z" fill="#9D2D21"/>
<path d="M180 0V57H127V0H180ZM130 54H177V3H130V54Z" fill="#9D2D21"/>
<path d="M96.291 39L104.661 18H107.721L116.091 39H112.881L110.631 33.18C110.241 32.16 109.641 31.71 108.591 31.71H103.791C102.741 31.71 102.141 32.16 101.751 33.18L99.501 39H96.291ZM103.761 27.96C103.491 28.65 103.821 29.07 104.541 29.07H107.841C108.561 29.07 108.891 28.65 108.621 27.96L106.821 23.37C106.491 22.53 105.891 22.53 105.561 23.37L103.761 27.96Z" fill="#9D2D21"/>
<path d="M66.8906 39V18H72.0806L77.6306 32.07C78.0506 33.15 79.1306 33.15 79.5506 32.07L85.1006 18H90.0206V39H87.0206V25.14C87.0206 23.82 85.8206 23.7 85.4006 24.78L79.7606 39H77.1506L71.6306 24.87C71.1806 23.7 69.8906 23.91 69.8906 25.23V39H66.8906Z" fill="#9D2D21"/>
<path d="M48.6036 39.36C42.1536 39.36 37.6836 34.62 37.6836 28.53C37.6836 22.44 42.1536 17.7 48.6036 17.7C55.0536 17.7 59.5236 22.47 59.5236 28.53C59.5236 34.59 55.0536 39.36 48.6036 39.36ZM40.9836 28.53C40.9836 33.06 44.0136 36.54 48.6036 36.54C53.1936 36.54 56.2236 33.09 56.2236 28.53C56.2236 23.97 53.1936 20.52 48.6036 20.52C44.0136 20.52 40.9836 24 40.9836 28.53Z" fill="#9D2D21"/>
<path d="M15.5801 39V18H26.6801C29.8001 18 32.2901 20.37 32.2901 23.25C32.2901 26.31 29.8301 28.5 26.2301 28.5C25.0001 28.5 24.6101 29.43 25.4201 30.42L32.4401 39H28.7801L20.9501 29.34C19.9901 28.17 18.7001 28.59 18.7001 30.15V39H15.5801ZM18.7001 24.21C18.7001 25.26 19.2701 25.83 20.3201 25.83H26.5301C28.0301 25.83 29.1701 24.66 29.1701 23.22C29.1701 21.78 28.0301 20.64 26.5301 20.64H20.3201C19.2701 20.64 18.7001 21.21 18.7001 22.26V24.21Z" fill="#9D2D21"/>
<defs>
<clipPath id="clip0_120_503">
<rect width="25" height="25" fill="white" transform="translate(141 16)"/>
</clipPath>
</defs>
</svg>
