<svg width="130" height="105" viewBox="0 0 130 105" fill="none" xmlns="http://www.w3.org/2000/svg">
<path d="M47 52H44V1L47 1V52Z" fill="#9D2D21"/>
<path d="M100.365 36V15H114.645V17.64H105.375C104.295 17.64 103.485 18.45 103.485 19.53V20.97C103.485 22.05 104.295 22.86 105.375 22.86H114.045V25.5H105.375C104.295 25.5 103.485 26.31 103.485 27.39V31.47C103.485 32.55 104.295 33.36 105.375 33.36H114.645V36H100.365Z" fill="#9D2D21"/>
<path d="M77.0547 17.64V15H93.9447V17.64H89.1147C87.7947 17.64 87.0747 18.36 87.0747 19.68V36H83.9547V19.68C83.9547 18.36 83.2347 17.64 81.9147 17.64H77.0547Z" fill="#9D2D21"/>
<path d="M57.5234 36V15H71.8034V17.64H62.5334C61.4534 17.64 60.6434 18.45 60.6434 19.53V20.97C60.6434 22.05 61.4534 22.86 62.5334 22.86H71.2034V25.5H62.5334C61.4534 25.5 60.6434 26.31 60.6434 27.39V31.47C60.6434 32.55 61.4534 33.36 62.5334 33.36H71.8034V36H57.5234Z" fill="#9D2D21"/>
<path d="M98.2168 79.29V76.77L107.547 66H111.657V75.63C111.657 76.44 112.107 76.89 112.917 76.89H115.377V79.29H112.917C112.107 79.29 111.657 79.74 111.657 80.55V87H108.657V80.55C108.657 79.74 108.207 79.29 107.397 79.29H98.2168ZM102.447 75.72C101.907 76.35 102.177 76.89 102.987 76.89H107.397C108.207 76.89 108.657 76.44 108.657 75.63V70.32C108.657 69.45 108.057 69.24 107.487 69.9L102.447 75.72Z" fill="#9D2D21"/>
<path d="M79.5894 87V84.36L87.1194 77.19C89.3994 75 90.3894 73.71 90.3894 71.91C90.3894 69.75 88.9194 68.4 86.4894 68.4C84.1794 68.4 82.6494 69.6 82.3794 71.58H79.1094C79.4394 68.07 82.4094 65.7 86.4894 65.7C90.7794 65.7 93.5094 68.34 93.5094 71.73C93.5094 73.8 92.5194 75.84 88.7994 79.32L85.1094 82.77C84.2694 83.55 84.5094 84.36 85.6794 84.36H92.9994V87H79.5894Z" fill="#9D2D21"/>
<path d="M65.3992 87.36C60.6892 87.36 57.4492 83.07 57.4492 76.5C57.4492 69.99 60.6892 65.7 65.3992 65.7C70.1092 65.7 73.3792 69.99 73.3792 76.5C73.3792 83.1 70.1092 87.36 65.3992 87.36ZM60.7492 76.5C60.7492 81.9 62.5792 84.72 65.3992 84.72C68.2492 84.72 70.0792 81.87 70.0792 76.5C70.0792 71.13 68.2492 68.34 65.3992 68.34C62.5792 68.34 60.7492 71.1 60.7492 76.5Z" fill="#9D2D21"/>
<path d="M37.5679 87V84.36L45.0979 77.19C47.3779 75 48.3679 73.71 48.3679 71.91C48.3679 69.75 46.8979 68.4 44.4679 68.4C42.1579 68.4 40.6279 69.6 40.3579 71.58H37.0879C37.4179 68.07 40.3879 65.7 44.4679 65.7C48.7579 65.7 51.4879 68.34 51.4879 71.73C51.4879 73.8 50.4979 75.84 46.7779 79.32L43.0879 82.77C42.2479 83.55 42.4879 84.36 43.6579 84.36H50.9779V87H37.5679Z" fill="#9D2D21"/>
<path d="M130 0V105H0V0H130ZM3 102H127V3H3V102Z" fill="#9D2D21"/>
<path d="M129.057 50.5V53.5H1.41211V50.5H129.057Z" fill="#9D2D21"/>
<path d="M47 52H44V1L47 1V52Z" fill="#9D2D21"/>
<g clip-path="url(#clip0_119_489)">
<path d="M26.017 26.4174L23.8691 27.5858C23.6832 27.6911 23.5283 27.849 23.4354 28.049L22.3821 30.2911L21.2359 28.1016C21.1326 27.9122 20.9777 27.7543 20.7815 27.6595L18.582 26.5858L20.7299 25.4174C20.9158 25.3122 21.0707 25.1543 21.1636 24.9543L22.2169 22.7122L23.3631 24.9016C23.4664 25.0911 23.6213 25.249 23.8175 25.3437L26.017 26.4174Z" fill="#9D2D21"/>
<path d="M16.9915 26.3313L12.2827 24.6997C11.1468 24.3102 9.96962 25.1839 10.0006 26.405C10.0316 27.5944 11.1881 28.4155 12.293 28.026L16.9915 26.3418V26.3313Z" fill="#9D2D21"/>
<path d="M27.5378 26.3987L32.2466 28.0303C33.3825 28.4198 34.5597 27.5461 34.5287 26.325C34.4977 25.1355 33.3412 24.3145 32.2363 24.704L27.5378 26.3882L27.5378 26.3987Z" fill="#9D2D21"/>
<path d="M22.5128 31.8135L20.9123 36.6135C20.5302 37.7714 21.3873 38.9609 22.5851 38.9293C23.752 38.8977 24.5575 37.7188 24.1754 36.5925L22.5232 31.803L22.5128 31.8135Z" fill="#9D2D21"/>
<path d="M22.1954 21.1235L23.796 16.3235C24.1884 15.1656 23.3313 13.9656 22.1335 13.9972C20.9666 14.0288 20.1612 15.2077 20.5432 16.334L22.1954 21.1235Z" fill="#9D2D21"/>
</g>
<path d="M65.8184 6.93917C66.4042 6.35354 67.354 6.35343 67.9397 6.93917C68.5255 7.5249 68.5254 8.47469 67.9397 9.06049L65.0609 11.9393C64.4751 12.5251 63.5254 12.5251 62.9396 11.9393C62.3538 11.3535 62.3538 10.4038 62.9396 9.818L65.8184 6.93917Z" fill="#9D2D21"/>
<path d="M109.818 6.93917C110.404 6.35354 111.354 6.35343 111.94 6.93917C112.525 7.5249 112.525 8.47469 111.94 9.06049L109.061 11.9393C108.475 12.5251 107.525 12.5251 106.94 11.9393C106.354 11.3535 106.354 10.4038 106.94 9.818L109.818 6.93917Z" fill="#9D2D21"/>
<defs>
<clipPath id="clip0_119_489">
<rect width="25" height="25" fill="white" transform="translate(10 14)"/>
</clipPath>
</defs>
</svg>
